# 3ds Max Wavefront OBJ Exporter v0.97b - (c)2007 guruware
# File Created: 29.10.2015 11:54:26

#
# object pivot
#

v  0.0500 0.0000 0.0500
v  -0.0500 0.0000 0.0500
v  -0.0500 0.0000 -0.0500
v  0.0500 0.0000 -0.0500
v  -0.0500 0.1000 -0.0500
v  -0.0500 0.1000 0.0500
v  0.0500 0.1000 0.0500
v  0.0500 0.1000 -0.0500
# 8 vertices

vn 0.0000 -1.0000 -0.0000
vn 0.0000 1.0000 -0.0000
vn 0.0000 0.0000 1.0000
vn 1.0000 0.0000 -0.0000
vn 0.0000 0.0000 -1.0000
vn -1.0000 0.0000 -0.0000
# 6 vertex normals

vt 0.0000 0.0000 0.0000
vt 1.0000 0.0000 0.0000
vt 1.0000 1.0000 0.0000
vt 0.0000 1.0000 0.0000
# 4 texture coords

g pivot
s 2
f 1/1/1 2/2/1 3/3/1 4/4/1 
s 4
f 5/4/2 6/1/2 7/2/2 8/3/2 
s 8
f 6/4/3 2/1/3 1/2/3 7/3/3 
s 16
f 7/4/4 1/1/4 4/2/4 8/3/4 
s 32
f 8/4/5 4/1/5 3/2/5 5/3/5 
s 64
f 5/4/6 3/1/6 2/2/6 6/3/6 
# 6 polygons

#
# object bronze_bomb
#

v  0.1285 0.0422 -0.0742
v  0.0675 0.0063 -0.0390
v  0.0390 0.0063 -0.0675
v  0.0742 0.0422 -0.1285
v  0.0000 0.0063 -0.0780
v  0.0000 0.0422 -0.1483
v  0.0000 0.0422 0.1483
v  0.0000 0.0063 0.0780
v  0.0390 0.0063 0.0675
v  0.0742 0.0422 0.1285
v  0.0675 0.0063 0.0390
v  0.1285 0.0422 0.0742
v  0.0780 0.0063 0.0000
v  0.1483 0.0422 0.0000
v  0.1768 0.0980 -0.1021
v  0.1021 0.0980 -0.1768
v  0.0000 0.0980 -0.2042
v  0.0000 0.0980 0.2042
v  0.1021 0.0980 0.1768
v  0.1768 0.0980 0.1021
v  0.2042 0.0980 0.0000
v  0.2079 0.1684 -0.1200
v  0.1200 0.1684 -0.2079
v  0.0000 0.1684 -0.2400
v  0.0000 0.1684 0.2400
v  0.1200 0.1684 0.2079
v  0.2079 0.1684 0.1200
v  0.2400 0.1684 0.0000
v  0.2186 0.2464 -0.1262
v  0.1262 0.2464 -0.2186
v  0.0000 0.2464 -0.2524
v  0.0000 0.2464 0.2524
v  0.1262 0.2464 0.2186
v  0.2186 0.2464 0.1262
v  0.2524 0.2464 0.0000
v  0.2079 0.3244 -0.1200
v  0.1200 0.3244 -0.2079
v  0.0000 0.3244 -0.2400
v  0.0000 0.3244 0.2400
v  0.1200 0.3244 0.2079
v  0.2079 0.3244 0.1200
v  0.2400 0.3244 0.0000
v  0.1768 0.3947 -0.1021
v  0.1021 0.3947 -0.1768
v  0.0000 0.3947 -0.2042
v  0.0000 0.3947 0.2042
v  0.1021 0.3947 0.1768
v  0.1768 0.3947 0.1021
v  0.2042 0.3947 0.0000
v  0.1285 0.4505 -0.0742
v  0.0742 0.4505 -0.1285
v  0.0000 0.4505 -0.1483
v  0.0000 0.4505 0.1483
v  0.0742 0.4505 0.1285
v  0.1285 0.4505 0.0742
v  0.1483 0.4505 0.0000
v  0.0675 0.4864 -0.0390
v  0.0390 0.4864 -0.0675
v  0.0000 0.4864 -0.0780
v  0.0000 0.4864 0.0780
v  0.0390 0.4864 0.0675
v  0.0675 0.4864 0.0390
v  0.0780 0.4864 0.0000
v  0.0000 -0.0060 0.0000
v  0.0000 0.4987 0.0000
v  -0.1285 0.0422 -0.0742
v  -0.0742 0.0422 -0.1285
v  -0.0390 0.0063 -0.0675
v  -0.0675 0.0063 -0.0390
v  -0.0742 0.0422 0.1285
v  -0.0390 0.0063 0.0675
v  -0.1285 0.0422 0.0742
v  -0.0675 0.0063 0.0390
v  -0.1483 0.0422 0.0000
v  -0.0780 0.0063 0.0000
v  -0.1768 0.0980 -0.1021
v  -0.1021 0.0980 -0.1768
v  -0.1021 0.0980 0.1768
v  -0.1768 0.0980 0.1021
v  -0.2042 0.0980 0.0000
v  -0.2079 0.1684 -0.1200
v  -0.1200 0.1684 -0.2079
v  -0.1200 0.1684 0.2079
v  -0.2079 0.1684 0.1200
v  -0.2400 0.1684 0.0000
v  -0.2186 0.2464 -0.1262
v  -0.1262 0.2464 -0.2186
v  -0.1262 0.2464 0.2186
v  -0.2186 0.2464 0.1262
v  -0.2524 0.2464 0.0000
v  -0.2079 0.3244 -0.1200
v  -0.1200 0.3244 -0.2079
v  -0.1200 0.3244 0.2079
v  -0.2079 0.3244 0.1200
v  -0.2400 0.3244 0.0000
v  -0.1768 0.3947 -0.1021
v  -0.1021 0.3947 -0.1768
v  -0.1021 0.3947 0.1768
v  -0.1768 0.3947 0.1021
v  -0.2042 0.3947 0.0000
v  -0.1285 0.4505 -0.0742
v  -0.0742 0.4505 -0.1285
v  -0.0742 0.4505 0.1285
v  -0.1285 0.4505 0.0742
v  -0.1483 0.4505 0.0000
v  -0.0675 0.4864 -0.0390
v  -0.0390 0.4864 -0.0675
v  -0.0390 0.4864 0.0675
v  -0.0675 0.4864 0.0390
v  -0.0780 0.4864 0.0000
# 110 vertices

vn 0.5233 -0.7968 -0.3021
vn 0.2877 -0.9432 -0.1661
vn 0.1661 -0.9432 -0.2877
vn 0.3021 -0.7968 -0.5233
vn -0.0000 -0.9432 -0.3322
vn -0.0000 -0.7968 -0.6043
vn 0.0000 -0.7968 0.6043
vn 0.0000 -0.9432 0.3322
vn 0.1661 -0.9432 0.2877
vn 0.3021 -0.7968 0.5233
vn 0.2877 -0.9432 0.1661
vn 0.5233 -0.7968 0.3021
vn 0.3322 -0.9432 0.0000
vn 0.6043 -0.7968 0.0000
vn 0.7081 -0.5758 -0.4088
vn 0.4088 -0.5758 -0.7081
vn 0.0000 -0.5758 -0.8176
vn 0.0000 -0.5758 0.8176
vn 0.4088 -0.5758 0.7081
vn 0.7081 -0.5758 0.4088
vn 0.8176 -0.5758 -0.0000
vn 0.8257 -0.3017 -0.4767
vn 0.4767 -0.3017 -0.8257
vn 0.0000 -0.3017 -0.9534
vn -0.0000 -0.3017 0.9534
vn 0.4767 -0.3017 0.8257
vn 0.8257 -0.3017 0.4767
vn 0.9534 -0.3017 -0.0000
vn 0.8660 -0.0000 -0.5000
vn 0.5000 0.0000 -0.8660
vn 0.0000 0.0000 -1.0000
vn 0.0000 -0.0000 1.0000
vn 0.5000 -0.0000 0.8660
vn 0.8660 0.0000 0.5000
vn 1.0000 -0.0000 -0.0000
vn 0.8257 0.3017 -0.4767
vn 0.4767 0.3017 -0.8257
vn -0.0000 0.3017 -0.9534
vn 0.0000 0.3017 0.9534
vn 0.4767 0.3017 0.8257
vn 0.8257 0.3017 0.4767
vn 0.9534 0.3017 0.0000
vn 0.7081 0.5758 -0.4088
vn 0.4088 0.5758 -0.7081
vn 0.0000 0.5758 -0.8176
vn 0.0000 0.5758 0.8176
vn 0.4088 0.5758 0.7081
vn 0.7081 0.5758 0.4088
vn 0.8176 0.5758 0.0000
vn 0.5233 0.7968 -0.3021
vn 0.3021 0.7968 -0.5233
vn 0.0000 0.7968 -0.6043
vn -0.0000 0.7968 0.6043
vn 0.3021 0.7968 0.5233
vn 0.5233 0.7968 0.3021
vn 0.6043 0.7968 -0.0000
vn 0.2877 0.9432 -0.1661
vn 0.1661 0.9432 -0.2877
vn 0.0000 0.9432 -0.3322
vn -0.0000 0.9432 0.3322
vn 0.1661 0.9432 0.2877
vn 0.2877 0.9432 0.1661
vn 0.3322 0.9432 -0.0000
vn -0.0000 -1.0000 -0.0000
vn -0.0000 1.0000 -0.0000
vn -0.5233 -0.7968 -0.3021
vn -0.3021 -0.7968 -0.5233
vn -0.1661 -0.9432 -0.2877
vn -0.2877 -0.9432 -0.1661
vn -0.3021 -0.7968 0.5233
vn -0.1661 -0.9432 0.2877
vn -0.5233 -0.7968 0.3021
vn -0.2877 -0.9432 0.1661
vn -0.6043 -0.7968 0.0000
vn -0.3322 -0.9432 0.0000
vn -0.7081 -0.5758 -0.4088
vn -0.4088 -0.5758 -0.7081
vn -0.4088 -0.5758 0.7081
vn -0.7081 -0.5758 0.4088
vn -0.8176 -0.5758 -0.0000
vn -0.8257 -0.3017 -0.4767
vn -0.4767 -0.3017 -0.8257
vn -0.4767 -0.3017 0.8257
vn -0.8257 -0.3017 0.4767
vn -0.9534 -0.3017 -0.0000
vn -0.8660 -0.0000 -0.5000
vn -0.5000 0.0000 -0.8660
vn -0.5000 -0.0000 0.8660
vn -0.8660 0.0000 0.5000
vn -1.0000 0.0000 -0.0000
vn -0.8257 0.3017 -0.4767
vn -0.4767 0.3017 -0.8257
vn -0.4767 0.3017 0.8257
vn -0.8257 0.3017 0.4767
vn -0.9534 0.3017 0.0000
vn -0.7081 0.5758 -0.4088
vn -0.4088 0.5758 -0.7081
vn -0.4088 0.5758 0.7081
vn -0.7081 0.5758 0.4088
vn -0.8176 0.5758 0.0000
vn -0.5233 0.7968 -0.3021
vn -0.3021 0.7968 -0.5233
vn -0.3021 0.7968 0.5233
vn -0.5233 0.7968 0.3021
vn -0.6043 0.7968 -0.0000
vn -0.2877 0.9432 -0.1661
vn -0.1661 0.9432 -0.2877
vn -0.1661 0.9432 0.2877
vn -0.2877 0.9432 0.1661
vn -0.3322 0.9432 -0.0000
# 110 vertex normals

vt 0.2520 0.3732 0.0000
vt 0.1453 0.3819 0.0000
vt 0.1305 0.3225 0.0000
vt 0.2294 0.2793 0.0000
vt 0.0985 0.2738 0.0000
vt 0.1772 0.1917 0.0000
vt 0.1776 0.7575 0.0000
vt 0.0990 0.6755 0.0000
vt 0.1309 0.6269 0.0000
vt 0.2297 0.6700 0.0000
vt 0.1456 0.5675 0.0000
vt 0.2522 0.5760 0.0000
vt 0.1412 0.5086 0.0000
vt 0.2500 0.4747 0.0000
vt 0.1411 0.4407 0.0000
vt 0.3424 0.3616 0.0000
vt 0.3196 0.2459 0.0000
vt 0.2634 0.1258 0.0000
vt 0.2640 0.8234 0.0000
vt 0.3200 0.7032 0.0000
vt 0.3427 0.5876 0.0000
vt 0.3470 0.4746 0.0000
vt 0.4242 0.3533 0.0000
vt 0.4087 0.2211 0.0000
vt 0.3560 0.0765 0.0000
vt 0.3567 0.8726 0.0000
vt 0.4091 0.7280 0.0000
vt 0.4243 0.5960 0.0000
vt 0.4274 0.4746 0.0000
vt 0.5032 0.3493 0.0000
vt 0.5030 0.2033 0.0000
vt 0.4522 0.0414 0.0000
vt 0.4529 0.9074 0.0000
vt 0.5034 0.7457 0.0000
vt 0.5033 0.5997 0.0000
vt 0.5031 0.4747 0.0000
vt 0.5821 0.3530 0.0000
vt 0.5976 0.2208 0.0000
vt 0.5539 0.0414 0.0000
vt 0.6499 0.0762 0.0000
vt 0.6503 0.8725 0.0000
vt 0.5544 0.9072 0.0000
vt 0.5979 0.7281 0.0000
vt 0.5823 0.5960 0.0000
vt 0.5792 0.4744 0.0000
vt 0.6642 0.3614 0.0000
vt 0.6869 0.2455 0.0000
vt 0.7427 0.1250 0.0000
vt 0.7431 0.8236 0.0000
vt 0.6871 0.7032 0.0000
vt 0.6642 0.5875 0.0000
vt 0.6598 0.4744 0.0000
vt 0.7550 0.3727 0.0000
vt 0.7775 0.2785 0.0000
vt 0.8297 0.1907 0.0000
vt 0.8300 0.7577 0.0000
vt 0.7776 0.6700 0.0000
vt 0.7551 0.5759 0.0000
vt 0.7571 0.4744 0.0000
vt 0.8622 0.3812 0.0000
vt 0.8768 0.3217 0.0000
vt 0.9088 0.2728 0.0000
vt 0.9088 0.6754 0.0000
vt 0.8768 0.6267 0.0000
vt 0.8622 0.5672 0.0000
vt 0.8667 0.5083 0.0000
vt 0.8667 0.4400 0.0000
vt 0.0212 0.3819 0.0000
vt 0.0218 0.3594 0.0000
vt 0.0221 0.5903 0.0000
vt 0.0214 0.5679 0.0000
vt 0.0317 0.5458 0.0000
vt 0.0316 0.4039 0.0000
vt 0.9862 0.3805 0.0000
vt 0.9854 0.3578 0.0000
vt 0.9854 0.5907 0.0000
vt 0.9862 0.5681 0.0000
vt 0.9760 0.5460 0.0000
vt 0.9759 0.4026 0.0000
vt 1.2520 0.3732 0.0000
vt 1.2294 0.2793 0.0000
vt 1.1305 0.3225 0.0000
vt 1.1453 0.3819 0.0000
vt 1.1772 0.1917 0.0000
vt 1.0985 0.2738 0.0000
vt 1.1776 0.7575 0.0000
vt 1.2297 0.6700 0.0000
vt 1.1309 0.6269 0.0000
vt 1.0990 0.6755 0.0000
vt 1.2522 0.5760 0.0000
vt 1.1456 0.5675 0.0000
vt 1.2500 0.4747 0.0000
vt 1.1412 0.5086 0.0000
vt 1.1411 0.4407 0.0000
vt 1.3424 0.3616 0.0000
vt 1.3196 0.2459 0.0000
vt 1.2634 0.1258 0.0000
vt 1.2640 0.8234 0.0000
vt 1.3200 0.7032 0.0000
vt 1.3427 0.5876 0.0000
vt 1.3470 0.4746 0.0000
vt 1.4242 0.3533 0.0000
vt 1.4087 0.2211 0.0000
vt 1.3560 0.0765 0.0000
vt 1.3567 0.8726 0.0000
vt 1.4091 0.7280 0.0000
vt 1.4243 0.5960 0.0000
vt 1.4274 0.4746 0.0000
vt 1.5032 0.3493 0.0000
vt 1.5030 0.2033 0.0000
vt 1.4522 0.0414 0.0000
vt 1.4529 0.9074 0.0000
vt 1.5034 0.7457 0.0000
vt 1.5033 0.5997 0.0000
vt 1.5031 0.4747 0.0000
vt 1.5821 0.3530 0.0000
vt 1.5976 0.2208 0.0000
vt 1.6499 0.0762 0.0000
vt 1.5539 0.0414 0.0000
vt 1.6503 0.8725 0.0000
vt 1.5979 0.7281 0.0000
vt 1.5544 0.9072 0.0000
vt 1.5823 0.5960 0.0000
vt 1.5792 0.4744 0.0000
vt 1.6642 0.3614 0.0000
vt 1.6869 0.2455 0.0000
vt 1.7427 0.1250 0.0000
vt 1.7431 0.8236 0.0000
vt 1.6871 0.7032 0.0000
vt 1.6642 0.5875 0.0000
vt 1.6598 0.4744 0.0000
vt 1.7550 0.3727 0.0000
vt 1.7775 0.2785 0.0000
vt 1.8297 0.1907 0.0000
vt 1.8300 0.7577 0.0000
vt 1.7776 0.6700 0.0000
vt 1.7551 0.5759 0.0000
vt 1.7571 0.4744 0.0000
vt 1.8622 0.3812 0.0000
vt 1.8768 0.3217 0.0000
vt 1.9088 0.2728 0.0000
vt 1.9088 0.6754 0.0000
vt 1.8768 0.6267 0.0000
vt 1.8622 0.5672 0.0000
vt 1.8667 0.5083 0.0000
vt 1.8667 0.4400 0.0000
vt 1.0212 0.3819 0.0000
vt 1.0218 0.3594 0.0000
vt 1.0221 0.5903 0.0000
vt 1.0214 0.5679 0.0000
vt 1.0317 0.5458 0.0000
vt 1.0316 0.4039 0.0000
vt 1.9862 0.3805 0.0000
vt 1.9854 0.3578 0.0000
vt 1.9854 0.5907 0.0000
vt 1.9862 0.5681 0.0000
vt 1.9760 0.5460 0.0000
vt 1.9759 0.4026 0.0000
# 158 texture coords

g bronze_bomb
s 1
f 9/5/7 10/6/8 11/7/9 12/8/10 
f 12/8/10 11/7/9 13/9/11 14/10/12 
f 15/11/13 16/12/14 17/13/15 18/14/16 
f 18/14/16 17/13/15 19/15/17 20/16/18 
f 20/16/18 19/15/17 21/17/19 22/18/20 
f 22/18/20 21/19/19 10/6/8 9/5/7 
f 23/20/21 9/5/7 12/8/10 24/21/22 
f 24/21/22 12/8/10 14/10/12 25/22/23 
f 26/23/24 15/11/13 18/14/16 27/24/25 
f 27/24/25 18/14/16 20/16/18 28/25/26 
f 28/25/26 20/16/18 22/18/20 29/26/27 
f 29/26/27 22/18/20 9/5/7 23/20/21 
f 30/27/28 23/20/21 24/21/22 31/28/29 
f 31/28/29 24/21/22 25/22/23 32/29/30 
f 33/30/31 26/23/24 27/24/25 34/31/32 
f 34/31/32 27/24/25 28/25/26 35/32/33 
f 35/32/33 28/25/26 29/26/27 36/33/34 
f 36/33/34 29/26/27 23/20/21 30/27/28 
f 37/34/35 30/27/28 31/28/29 38/35/36 
f 38/35/36 31/28/29 32/29/30 39/36/37 
f 40/37/38 33/30/31 34/31/32 41/38/39 
f 41/38/39 34/31/32 35/32/33 42/39/40 
f 42/39/40 35/32/33 36/33/34 43/40/41 
f 43/40/41 36/33/34 30/27/28 37/34/35 
f 44/41/42 37/34/35 38/35/36 45/42/43 
f 45/42/43 38/35/36 39/43/37 46/44/44 
f 47/45/45 40/46/38 41/38/39 48/47/46 
f 48/47/46 41/38/39 42/39/40 49/48/47 
f 49/48/47 42/39/40 43/40/41 50/49/48 
f 50/49/48 43/40/41 37/34/35 44/41/42 
f 51/50/49 44/41/42 45/42/43 52/51/50 
f 52/51/50 45/42/43 46/44/44 53/52/51 
f 54/53/52 47/45/45 48/47/46 55/54/53 
f 55/54/53 48/47/46 49/48/47 56/55/54 
f 56/55/54 49/48/47 50/49/48 57/56/55 
f 57/56/55 50/49/48 44/41/42 51/50/49 
f 58/57/56 51/50/49 52/51/50 59/58/57 
f 59/58/57 52/51/50 53/52/51 60/59/58 
f 61/60/59 54/53/52 55/54/53 62/61/60 
f 62/61/60 55/54/53 56/55/54 63/62/61 
f 63/62/61 56/55/54 57/56/55 64/63/62 
f 64/63/62 57/56/55 51/50/49 58/57/56 
f 65/64/63 58/57/56 59/58/57 66/65/64 
f 66/65/64 59/58/57 60/59/58 67/66/65 
f 68/67/66 61/60/59 62/61/60 69/68/67 
f 69/68/67 62/61/60 63/62/61 70/69/68 
f 70/69/68 63/62/61 64/63/62 71/70/69 
f 71/71/69 64/63/62 58/57/56 65/64/63 
f 11/7/9 10/6/8 72/72/70 
f 13/9/11 11/7/9 72/73/70 
f 17/13/15 16/12/14 72/74/70 
f 19/15/17 17/13/15 72/75/70 
f 21/17/19 19/15/17 72/76/70 
f 10/6/8 21/19/19 72/77/70 
f 65/64/63 66/65/64 73/78/71 
f 66/65/64 67/66/65 73/79/71 
f 68/67/66 69/68/67 73/80/71 
f 69/68/67 70/69/68 73/81/71 
f 70/69/68 71/70/69 73/82/71 
f 71/71/69 65/64/63 73/83/71 
f 74/84/72 75/85/73 76/86/74 77/87/75 
f 75/85/73 14/88/12 13/89/11 76/86/74 
f 15/90/13 78/91/76 79/92/77 16/93/14 
f 78/91/76 80/94/78 81/95/79 79/92/77 
f 80/94/78 82/96/80 83/97/81 81/95/79 
f 82/96/80 74/84/72 77/87/75 83/98/81 
f 84/99/82 85/100/83 75/85/73 74/84/72 
f 85/100/83 25/101/23 14/88/12 75/85/73 
f 26/102/24 86/103/84 78/91/76 15/90/13 
f 86/103/84 87/104/85 80/94/78 78/91/76 
f 87/104/85 88/105/86 82/96/80 80/94/78 
f 88/105/86 84/99/82 74/84/72 82/96/80 
f 89/106/87 90/107/88 85/100/83 84/99/82 
f 90/107/88 32/108/30 25/101/23 85/100/83 
f 33/109/31 91/110/89 86/103/84 26/102/24 
f 91/110/89 92/111/90 87/104/85 86/103/84 
f 92/111/90 93/112/91 88/105/86 87/104/85 
f 93/112/91 89/106/87 84/99/82 88/105/86 
f 94/113/92 95/114/93 90/107/88 89/106/87 
f 95/114/93 39/115/37 32/108/30 90/107/88 
f 40/116/38 96/117/94 91/110/89 33/109/31 
f 96/117/94 97/118/95 92/111/90 91/110/89 
f 97/118/95 98/119/96 93/112/91 92/111/90 
f 98/119/96 94/113/92 89/106/87 93/112/91 
f 99/120/97 100/121/98 95/114/93 94/113/92 
f 100/121/98 46/122/44 39/123/37 95/114/93 
f 47/124/45 101/125/99 96/117/94 40/126/38 
f 101/125/99 102/127/100 97/118/95 96/117/94 
f 102/127/100 103/128/101 98/119/96 97/118/95 
f 103/128/101 99/120/97 94/113/92 98/119/96 
f 104/129/102 105/130/103 100/121/98 99/120/97 
f 105/130/103 53/131/51 46/122/44 100/121/98 
f 54/132/52 106/133/104 101/125/99 47/124/45 
f 106/133/104 107/134/105 102/127/100 101/125/99 
f 107/134/105 108/135/106 103/128/101 102/127/100 
f 108/135/106 104/129/102 99/120/97 103/128/101 
f 109/136/107 110/137/108 105/130/103 104/129/102 
f 110/137/108 60/138/58 53/131/51 105/130/103 
f 61/139/59 111/140/109 106/133/104 54/132/52 
f 111/140/109 112/141/110 107/134/105 106/133/104 
f 112/141/110 113/142/111 108/135/106 107/134/105 
f 113/142/111 109/136/107 104/129/102 108/135/106 
f 114/143/112 115/144/113 110/137/108 109/136/107 
f 115/144/113 67/145/65 60/138/58 110/137/108 
f 68/146/66 116/147/114 111/140/109 61/139/59 
f 116/147/114 117/148/115 112/141/110 111/140/109 
f 117/148/115 118/149/116 113/142/111 112/141/110 
f 118/150/116 114/143/112 109/136/107 113/142/111 
f 76/86/74 72/151/70 77/87/75 
f 13/89/11 72/152/70 76/86/74 
f 79/92/77 72/153/70 16/93/14 
f 81/95/79 72/154/70 79/92/77 
f 83/97/81 72/155/70 81/95/79 
f 77/87/75 72/156/70 83/98/81 
f 114/143/112 73/157/71 115/144/113 
f 115/144/113 73/158/71 67/145/65 
f 68/146/66 73/159/71 116/147/114 
f 116/147/114 73/160/71 117/148/115 
f 117/148/115 73/161/71 118/149/116 
f 118/150/116 73/162/71 114/143/112 
# 96 polygons - 24 triangles

#
# object bronze_bomb_coll
#

v  0.0000 0.5077 0.0000
v  -0.0000 0.4417 -0.1969
v  -0.1392 0.4417 -0.1392
v  -0.1969 0.4417 0.0000
v  -0.1392 0.4417 0.1392
v  0.0000 0.4417 0.1969
v  0.1392 0.4417 0.1392
v  0.1969 0.4417 0.0000
v  0.1392 0.4417 -0.1392
v  -0.1969 0.2449 -0.1969
v  -0.0000 0.2449 -0.2784
v  -0.2784 0.2449 0.0000
v  -0.1969 0.2449 0.1969
v  0.0000 0.2449 0.2784
v  0.1969 0.2449 0.1969
v  0.2784 0.2449 0.0000
v  0.1969 0.2449 -0.1969
v  -0.1392 0.0480 -0.1392
v  -0.0000 0.0480 -0.1969
v  -0.1969 0.0480 0.0000
v  -0.1392 0.0480 0.1392
v  0.0000 0.0480 0.1969
v  0.1392 0.0480 0.1392
v  0.1969 0.0480 0.0000
v  0.1392 0.0480 -0.1392
v  0.0000 -0.0132 0.0000
# 26 vertices

vn -0.0000 1.0000 0.0000
vn 0.0000 0.6834 -0.7300
vn -0.5162 0.6834 -0.5162
vn -0.7300 0.6834 0.0000
vn -0.5162 0.6834 0.5162
vn 0.0000 0.6834 0.7300
vn 0.5162 0.6834 0.5162
vn 0.7300 0.6834 0.0000
vn 0.5162 0.6834 -0.5162
vn -0.7071 -0.0000 -0.7071
vn 0.0000 -0.0000 -1.0000
vn -1.0000 -0.0000 0.0000
vn -0.7071 -0.0000 0.7071
vn 0.0000 -0.0000 1.0000
vn 0.7071 -0.0000 0.7071
vn 1.0000 -0.0000 0.0000
vn 0.7071 -0.0000 -0.7071
vn -0.5119 -0.6898 -0.5119
vn 0.0000 -0.6898 -0.7240
vn -0.7240 -0.6898 0.0000
vn -0.5119 -0.6898 0.5119
vn 0.0000 -0.6898 0.7240
vn 0.5119 -0.6898 0.5119
vn 0.7240 -0.6898 0.0000
vn 0.5119 -0.6898 -0.5119
vn -0.0000 -1.0000 -0.0000
# 26 vertex normals

vt 0.0000 1.0000 0.0000
vt 0.0000 0.7500 0.0000
vt 0.1250 0.7500 0.0000
vt 0.1250 1.0000 0.0000
vt 0.2500 0.7500 0.0000
vt 0.2500 1.0000 0.0000
vt 0.3750 0.7500 0.0000
vt 0.3750 1.0000 0.0000
vt 0.5000 0.7500 0.0000
vt 0.5000 1.0000 0.0000
vt 0.6250 0.7500 0.0000
vt 0.6250 1.0000 0.0000
vt 0.7500 0.7500 0.0000
vt 0.7500 1.0000 0.0000
vt 0.8750 0.7500 0.0000
vt 0.8750 1.0000 0.0000
vt 1.0000 0.7500 0.0000
vt 0.1250 0.5000 0.0000
vt 0.0000 0.5000 0.0000
vt 0.2500 0.5000 0.0000
vt 0.3750 0.5000 0.0000
vt 0.5000 0.5000 0.0000
vt 0.6250 0.5000 0.0000
vt 0.7500 0.5000 0.0000
vt 0.8750 0.5000 0.0000
vt 1.0000 0.5000 0.0000
vt 0.1250 0.2500 0.0000
vt 0.0000 0.2500 0.0000
vt 0.2500 0.2500 0.0000
vt 0.3750 0.2500 0.0000
vt 0.5000 0.2500 0.0000
vt 0.6250 0.2500 0.0000
vt 0.7500 0.2500 0.0000
vt 0.8750 0.2500 0.0000
vt 1.0000 0.2500 0.0000
vt 0.0000 0.0000 0.0000
vt 0.1250 0.0000 0.0000
vt 0.2500 0.0000 0.0000
vt 0.3750 0.0000 0.0000
vt 0.5000 0.0000 0.0000
vt 0.6250 0.0000 0.0000
vt 0.7500 0.0000 0.0000
vt 0.8750 0.0000 0.0000
# 43 texture coords

g bronze_bomb_coll
s 1
f 119/163/117 120/164/118 121/165/119 
f 119/166/117 121/165/119 122/167/120 
f 119/168/117 122/167/120 123/169/121 
f 119/170/117 123/169/121 124/171/122 
f 119/172/117 124/171/122 125/173/123 
f 119/174/117 125/173/123 126/175/124 
f 119/176/117 126/175/124 127/177/125 
f 119/178/117 127/177/125 120/179/118 
f 128/180/126 121/165/119 120/164/118 129/181/127 
f 130/182/128 122/167/120 121/165/119 128/180/126 
f 131/183/129 123/169/121 122/167/120 130/182/128 
f 132/184/130 124/171/122 123/169/121 131/183/129 
f 133/185/131 125/173/123 124/171/122 132/184/130 
f 134/186/132 126/175/124 125/173/123 133/185/131 
f 135/187/133 127/177/125 126/175/124 134/186/132 
f 129/188/127 120/179/118 127/177/125 135/187/133 
f 136/189/134 128/180/126 129/181/127 137/190/135 
f 138/191/136 130/182/128 128/180/126 136/189/134 
f 139/192/137 131/183/129 130/182/128 138/191/136 
f 140/193/138 132/184/130 131/183/129 139/192/137 
f 141/194/139 133/185/131 132/184/130 140/193/138 
f 142/195/140 134/186/132 133/185/131 141/194/139 
f 143/196/141 135/187/133 134/186/132 142/195/140 
f 137/197/135 129/188/127 135/187/133 143/196/141 
f 144/198/142 136/189/134 137/190/135 
f 144/199/142 138/191/136 136/189/134 
f 144/200/142 139/192/137 138/191/136 
f 144/201/142 140/193/138 139/192/137 
f 144/202/142 141/194/139 140/193/138 
f 144/203/142 142/195/140 141/194/139 
f 144/204/142 143/196/141 142/195/140 
f 144/205/142 137/197/135 143/196/141 
# 16 polygons - 16 triangles

