# 3ds Max Wavefront OBJ Exporter v0.97b - (c)2007 guruware
# File Created: 28.10.2015 12:11:52

#
# object pivot
#

v  0.1027 0.0000 -0.1027
v  0.1027 0.0000 0.1027
v  -0.1027 0.0000 0.1027
v  -0.1027 0.0000 -0.1027
v  0.1027 0.2054 -0.1027
v  -0.1027 0.2054 -0.1027
v  -0.1027 0.2054 0.1027
v  0.1027 0.2054 0.1027
# 8 vertices

vn 0.0000 -1.0000 -0.0000
vn 0.0000 1.0000 -0.0000
vn 0.0000 0.0000 1.0000
vn 1.0000 0.0000 -0.0000
vn 0.0000 0.0000 -1.0000
vn -1.0000 0.0000 -0.0000
# 6 vertex normals

vt 0.0000 1.0000 0.0000
vt 0.0000 0.0000 0.0000
vt 1.0000 0.0000 0.0000
vt 1.0000 1.0000 0.0000
# 4 texture coords

g pivot
s 2
f 1/1/1 2/2/1 3/3/1 4/4/1 
s 4
f 5/4/2 6/1/2 7/2/2 8/3/2 
s 8
f 8/4/3 7/1/3 3/2/3 2/3/3 
s 16
f 5/4/4 8/1/4 2/2/4 1/3/4 
s 32
f 6/4/5 5/1/5 1/2/5 4/3/5 
s 64
f 7/4/6 6/1/6 4/2/6 3/3/6 
# 6 polygons

#
# object caltrop
#

v  0.0218 0.6474 0.8334
v  0.0218 0.6160 0.7907
v  0.7068 1.2032 0.3595
v  0.7068 1.2346 0.4022
v  0.7435 1.2347 0.3363
v  0.7068 0.6113 -0.4466
v  0.7435 0.6428 -0.4697
v  0.7068 0.5786 -0.4912
v  0.0218 0.0241 -0.0153
v  0.0218 -0.0087 -0.0600
v  -0.0172 -0.0093 0.0092
v  -0.0172 0.5826 0.8152
v  0.0676 0.5813 0.8162
v  0.0676 -0.0106 0.0102
v  0.7526 0.5766 -0.4211
v  0.7526 1.1685 0.3850
v  1.0650 0.1252 0.5618
v  1.0307 0.0958 0.5834
v  1.0307 0.0662 0.5431
v  1.0650 0.0956 0.5215
v  0.3421 0.8877 -0.6495
v  0.3789 0.9192 -0.6726
v  0.3421 0.8549 -0.6941
v  -0.3429 0.3005 -0.2182
v  -0.3429 0.2677 -0.2629
v  -0.3818 0.2670 -0.1937
v  -0.3429 0.8923 0.5878
v  -0.3818 0.8589 0.6123
v  -0.3429 0.9237 0.6305
v  0.3421 1.4796 0.1565
v  0.3421 1.5109 0.1993
v  0.3789 1.5111 0.1334
v  0.0011 1.7122 1.1491
v  -0.0175 1.7263 1.1388
v  0.0353 1.7416 1.1275
v  0.0168 1.7557 1.1172
v  1.0031 1.7350 -0.6204
v  0.9845 1.7491 -0.6307
v  1.0031 1.7054 -0.6607
v  0.9845 1.7195 -0.6710
v  0.0353 0.0395 -1.1902
v  0.0168 0.0536 -1.2006
v  0.0011 0.0102 -1.1687
v  -0.0175 0.0243 -1.1790
v  -0.9667 0.0167 0.5794
v  -0.9853 0.0308 0.5691
v  -0.9667 0.0463 0.6197
v  -0.9853 0.0604 0.6094
v  -0.0225 1.7559 -0.0464
v  -0.7075 1.1687 0.3848
v  -0.7075 1.2000 0.4276
v  -0.0225 1.7873 -0.0037
v  -0.0225 1.1640 -0.8524
v  0.0142 1.7874 -0.0695
v  0.0142 1.1955 -0.8755
v  -0.7075 0.5768 -0.4212
v  -0.0225 1.1312 -0.8971
v  -0.7075 0.5440 -0.4658
v  -0.7465 0.5434 -0.3966
v  -0.7465 1.1353 0.4094
v  -0.7533 1.2034 0.3594
v  -0.7533 0.6115 -0.4467
v  -0.0683 1.1987 -0.8779
v  -0.0683 1.7906 -0.0719
v  -1.0657 1.6549 -0.6235
v  -1.0657 1.6845 -0.5832
v  -1.0315 1.7138 -0.6048
v  -1.0315 1.6842 -0.6451
v  -0.0361 1.7404 1.1284
v  -0.0018 1.7698 1.1069
v  0.9659 1.7632 -0.6411
v  0.9659 1.7336 -0.6814
v  -0.0018 0.0677 -1.2109
v  -0.0361 0.0384 -1.1894
v  -1.0039 0.0449 0.5587
v  -1.0039 0.0745 0.5990
# 76 vertices

vn 0.7286 -0.5521 0.4054
vn -0.6850 -0.5872 0.4312
vn -0.0000 -0.5919 -0.8060
vn 0.6850 0.5872 -0.4312
vn 0.0000 0.5919 0.8060
vn -0.6035 -0.2374 0.7612
vn 0.6419 -0.2065 0.7385
vn 0.6035 0.7974 0.0013
vn 0.3242 0.7993 0.5059
vn 0.9660 -0.2084 0.1531
vn 0.3242 -0.2435 -0.9141
vn 0.6032 0.2365 -0.7617
vn 0.6415 -0.7667 -0.0250
vn -0.6032 -0.7976 -0.0023
vn -0.3251 -0.7997 -0.5048
vn 0.3162 -0.7647 0.5615
vn -0.3251 0.2423 0.9141
vn -0.2546 -0.7795 0.5724
vn 0.3475 -0.7836 -0.5151
vn 0.9495 0.2528 -0.1857
vn 0.3475 0.2569 0.9018
vn -0.7286 0.5521 -0.4054
vn -0.0000 0.5919 0.8060
vn -0.6419 0.7664 0.0240
vn -0.3176 0.7643 -0.5612
vn -0.6415 0.2056 -0.7390
vn -0.9664 0.2073 -0.1522
vn -0.9495 -0.2528 0.1857
vn -0.3475 -0.2569 -0.9018
vn 0.2546 0.7795 -0.5724
vn -0.3475 0.7836 0.5151
# 31 vertex normals

vt 0.5314 0.3716 0.0000
vt 0.5460 0.3716 0.0000
vt 0.5460 0.6472 0.0000
vt 0.5314 0.6472 0.0000
vt 0.5733 0.6986 0.0000
vt 0.5585 0.6986 0.0000
vt 0.5585 0.4231 0.0000
vt 0.5733 0.4231 0.0000
vt 0.5989 0.7533 0.0000
vt 0.5836 0.7533 0.0000
vt 0.5836 0.4778 0.0000
vt 0.5989 0.4778 0.0000
vt 0.2933 0.5083 0.0000
vt 0.3090 0.5083 0.0000
vt 0.3090 0.7838 0.0000
vt 0.2933 0.7838 0.0000
vt 0.3204 0.5097 0.0000
vt 0.3377 0.5097 0.0000
vt 0.3377 0.7852 0.0000
vt 0.3204 0.7852 0.0000
vt 0.3494 0.5089 0.0000
vt 0.3668 0.5089 0.0000
vt 0.3668 0.7844 0.0000
vt 0.3494 0.7844 0.0000
vt 0.3958 0.7853 0.0000
vt 0.3785 0.7853 0.0000
vt 0.3785 0.5098 0.0000
vt 0.3958 0.5098 0.0000
vt 0.4248 0.7843 0.0000
vt 0.4075 0.7843 0.0000
vt 0.4075 0.5088 0.0000
vt 0.4248 0.5088 0.0000
vt 0.8237 0.1045 0.0000
vt 0.8334 0.0947 0.0000
vt 0.8431 0.1045 0.0000
vt 0.8334 0.1142 0.0000
vt 0.9855 0.2280 0.0000
vt 0.9708 0.2280 0.0000
vt 0.9708 0.0902 0.0000
vt 0.9855 0.0902 0.0000
vt 0.8718 0.0820 0.0000
vt 0.8718 0.2197 0.0000
vt 0.8566 0.2197 0.0000
vt 0.8566 0.0820 0.0000
vt 0.2370 0.1689 0.0000
vt 0.2217 0.1689 0.0000
vt 0.2217 0.0311 0.0000
vt 0.2370 0.0311 0.0000
vt 0.6030 0.1622 0.0000
vt 0.6030 0.0244 0.0000
vt 0.6187 0.0244 0.0000
vt 0.6187 0.1622 0.0000
vt 0.6611 0.7698 0.0000
vt 0.6767 0.7698 0.0000
vt 0.6767 0.9076 0.0000
vt 0.6611 0.9076 0.0000
vt 0.3311 0.7959 0.0000
vt 0.3311 0.9337 0.0000
vt 0.3165 0.9337 0.0000
vt 0.3165 0.7959 0.0000
vt 0.3417 0.7972 0.0000
vt 0.3563 0.7972 0.0000
vt 0.3563 0.9350 0.0000
vt 0.3417 0.9350 0.0000
vt 0.3081 0.8050 0.0000
vt 0.3081 0.9428 0.0000
vt 0.2933 0.9428 0.0000
vt 0.2933 0.8050 0.0000
vt 0.0049 0.0409 0.0000
vt 0.1380 0.0053 0.0000
vt 0.0831 0.3064 0.0000
vt 0.0765 0.3082 0.0000
vt 0.3915 0.2210 0.0000
vt 0.5224 0.4977 0.0000
vt 0.2469 0.4977 0.0000
vt 0.3777 0.2210 0.0000
vt 0.1799 0.0076 0.0000
vt 0.2348 0.3088 0.0000
vt 0.1017 0.2731 0.0000
vt 0.1733 0.0059 0.0000
vt 0.2469 0.0421 0.0000
vt 0.3799 0.0065 0.0000
vt 0.3251 0.3075 0.0000
vt 0.3184 0.3093 0.0000
vt 0.6623 0.5905 0.0000
vt 0.5314 0.3139 0.0000
vt 0.8069 0.3139 0.0000
vt 0.6760 0.5905 0.0000
vt 0.4449 0.3072 0.0000
vt 0.3901 0.0062 0.0000
vt 0.5232 0.0419 0.0000
vt 0.4516 0.3090 0.0000
vt 0.6199 0.2724 0.0000
vt 0.4869 0.3082 0.0000
vt 0.5417 0.0075 0.0000
vt 0.5483 0.0058 0.0000
vt 0.8348 0.3159 0.0000
vt 0.9656 0.5921 0.0000
vt 0.6901 0.5921 0.0000
vt 0.8210 0.3159 0.0000
vt 0.6871 0.3067 0.0000
vt 0.6320 0.0061 0.0000
vt 0.7651 0.0417 0.0000
vt 0.6938 0.3084 0.0000
vt 0.8599 0.2713 0.0000
vt 0.7269 0.3071 0.0000
vt 0.7817 0.0067 0.0000
vt 0.7883 0.0050 0.0000
vt 0.1496 0.3270 0.0000
vt 0.2804 0.6028 0.0000
vt 0.0049 0.6028 0.0000
vt 0.1358 0.3270 0.0000
vt 0.9310 0.0669 0.0000
vt 0.9857 0.3673 0.0000
vt 0.8527 0.3315 0.0000
vt 0.9243 0.0652 0.0000
vt 0.7397 0.8773 0.0000
vt 0.6088 0.6029 0.0000
vt 0.8843 0.6029 0.0000
vt 0.7535 0.8773 0.0000
vt 0.1496 0.6139 0.0000
vt 0.2804 0.8883 0.0000
vt 0.0049 0.8883 0.0000
vt 0.1358 0.6139 0.0000
vt 0.5173 0.6506 0.0000
vt 0.6482 0.9251 0.0000
vt 0.3727 0.9251 0.0000
vt 0.5035 0.6506 0.0000
vt 0.8541 0.7206 0.0000
vt 0.9850 0.9950 0.0000
vt 0.7095 0.9950 0.0000
vt 0.8403 0.7206 0.0000
vt 0.8826 0.1442 0.0000
vt 0.8903 0.1441 0.0000
vt 0.8903 0.1593 0.0000
vt 0.8827 0.1594 0.0000
vt 0.8886 0.1329 0.0000
vt 0.8817 0.1329 0.0000
vt 0.8817 0.1191 0.0000
vt 0.8886 0.1191 0.0000
vt 0.9583 0.1228 0.0000
vt 0.9514 0.1228 0.0000
vt 0.9514 0.1090 0.0000
vt 0.9583 0.1090 0.0000
vt 0.9002 0.1072 0.0000
vt 0.8933 0.1072 0.0000
vt 0.8933 0.0934 0.0000
vt 0.9002 0.0934 0.0000
vt 1.5460 0.6472 0.0000
vt 1.5460 0.3716 0.0000
vt 1.5314 0.3716 0.0000
vt 1.5314 0.6472 0.0000
vt 1.5585 0.4231 0.0000
vt 1.5585 0.6986 0.0000
vt 1.5733 0.6986 0.0000
vt 1.5733 0.4231 0.0000
vt 1.5836 0.4778 0.0000
vt 1.5836 0.7533 0.0000
vt 1.5989 0.7533 0.0000
vt 1.5989 0.4778 0.0000
vt 1.3090 0.7838 0.0000
vt 1.3090 0.5083 0.0000
vt 1.2933 0.5083 0.0000
vt 1.2933 0.7838 0.0000
vt 1.3377 0.7852 0.0000
vt 1.3377 0.5097 0.0000
vt 1.3204 0.5097 0.0000
vt 1.3204 0.7852 0.0000
vt 1.3668 0.7844 0.0000
vt 1.3668 0.5089 0.0000
vt 1.3494 0.5089 0.0000
vt 1.3494 0.7844 0.0000
vt 1.3785 0.5098 0.0000
vt 1.3785 0.7853 0.0000
vt 1.3958 0.7853 0.0000
vt 1.3958 0.5098 0.0000
vt 1.4075 0.5088 0.0000
vt 1.4075 0.7843 0.0000
vt 1.4248 0.7843 0.0000
vt 1.4248 0.5088 0.0000
vt 1.9708 0.0902 0.0000
vt 1.9708 0.2280 0.0000
vt 1.9855 0.2280 0.0000
vt 1.9855 0.0902 0.0000
vt 1.8566 0.2197 0.0000
vt 1.8718 0.2197 0.0000
vt 1.8718 0.0820 0.0000
vt 1.8566 0.0820 0.0000
vt 1.2217 0.0311 0.0000
vt 1.2217 0.1689 0.0000
vt 1.2370 0.1689 0.0000
vt 1.2370 0.0311 0.0000
vt 1.6187 0.0244 0.0000
vt 1.6030 0.0244 0.0000
vt 1.6030 0.1622 0.0000
vt 1.6187 0.1622 0.0000
vt 1.6767 0.9076 0.0000
vt 1.6767 0.7698 0.0000
vt 1.6611 0.7698 0.0000
vt 1.6611 0.9076 0.0000
vt 1.3165 0.9337 0.0000
vt 1.3311 0.9337 0.0000
vt 1.3311 0.7959 0.0000
vt 1.3165 0.7959 0.0000
vt 1.3563 0.9350 0.0000
vt 1.3563 0.7972 0.0000
vt 1.3417 0.7972 0.0000
vt 1.3417 0.9350 0.0000
vt 1.2933 0.9428 0.0000
vt 1.3081 0.9428 0.0000
vt 1.3081 0.8050 0.0000
vt 1.2933 0.8050 0.0000
vt 1.0049 0.0409 0.0000
vt 1.0765 0.3082 0.0000
vt 1.0831 0.3064 0.0000
vt 1.1380 0.0053 0.0000
vt 1.2469 0.4977 0.0000
vt 1.5224 0.4977 0.0000
vt 1.3915 0.2210 0.0000
vt 1.3777 0.2210 0.0000
vt 1.1017 0.2731 0.0000
vt 1.2348 0.3088 0.0000
vt 1.1799 0.0076 0.0000
vt 1.1733 0.0059 0.0000
vt 1.2469 0.0421 0.0000
vt 1.3184 0.3093 0.0000
vt 1.3251 0.3075 0.0000
vt 1.3799 0.0065 0.0000
vt 1.8069 0.3139 0.0000
vt 1.5314 0.3139 0.0000
vt 1.6623 0.5905 0.0000
vt 1.6760 0.5905 0.0000
vt 1.5232 0.0419 0.0000
vt 1.3901 0.0062 0.0000
vt 1.4449 0.3072 0.0000
vt 1.4516 0.3090 0.0000
vt 1.6199 0.2724 0.0000
vt 1.5483 0.0058 0.0000
vt 1.5417 0.0075 0.0000
vt 1.4869 0.3082 0.0000
vt 1.6901 0.5921 0.0000
vt 1.9656 0.5921 0.0000
vt 1.8348 0.3159 0.0000
vt 1.8210 0.3159 0.0000
vt 1.7651 0.0417 0.0000
vt 1.6320 0.0061 0.0000
vt 1.6871 0.3067 0.0000
vt 1.6938 0.3084 0.0000
vt 1.8599 0.2713 0.0000
vt 1.7883 0.0050 0.0000
vt 1.7817 0.0067 0.0000
vt 1.7269 0.3071 0.0000
vt 1.0049 0.6028 0.0000
vt 1.2804 0.6028 0.0000
vt 1.1496 0.3270 0.0000
vt 1.1358 0.3270 0.0000
vt 1.8527 0.3315 0.0000
vt 1.9857 0.3673 0.0000
vt 1.9310 0.0669 0.0000
vt 1.9243 0.0652 0.0000
vt 1.8843 0.6029 0.0000
vt 1.6088 0.6029 0.0000
vt 1.7397 0.8773 0.0000
vt 1.7535 0.8773 0.0000
vt 1.0049 0.8883 0.0000
vt 1.2804 0.8883 0.0000
vt 1.1496 0.6139 0.0000
vt 1.1358 0.6139 0.0000
vt 1.3727 0.9251 0.0000
vt 1.6482 0.9251 0.0000
vt 1.5173 0.6506 0.0000
vt 1.5035 0.6506 0.0000
vt 1.7095 0.9950 0.0000
vt 1.9850 0.9950 0.0000
vt 1.8541 0.7206 0.0000
vt 1.8403 0.7206 0.0000
vt 1.8903 0.1593 0.0000
vt 1.8903 0.1441 0.0000
vt 1.8826 0.1442 0.0000
vt 1.8827 0.1594 0.0000
vt 1.8817 0.1191 0.0000
vt 1.8817 0.1329 0.0000
vt 1.8886 0.1329 0.0000
vt 1.8886 0.1191 0.0000
vt 1.9514 0.1090 0.0000
vt 1.9514 0.1228 0.0000
vt 1.9583 0.1228 0.0000
vt 1.9583 0.1090 0.0000
vt 1.8933 0.0934 0.0000
vt 1.8933 0.1072 0.0000
vt 1.9002 0.1072 0.0000
vt 1.9002 0.0934 0.0000
# 292 texture coords

g caltrop
s 2
f 9/5/7 10/6/7 11/7/7 12/8/7 
s 4
f 13/9/7 11/10/7 14/11/7 15/12/7 
s 2
f 16/13/7 14/14/7 17/15/7 18/16/7 
s 4
f 19/17/7 17/18/7 10/19/7 20/20/7 
s 8
f 21/21/8 10/22/8 17/23/8 22/24/8 
s 16
f 22/25/9 17/26/9 14/27/9 23/28/9 
s 8
f 23/29/10 14/30/10 11/31/10 24/32/10 
s 16
f 24/33/11 11/34/11 10/35/11 21/36/11 
s 2
f 25/37/7 26/38/7 27/39/7 28/40/7 
s 32
f 15/41/9 14/42/9 29/43/9 30/44/9 
s 64
f 16/45/10 31/46/10 29/47/10 14/48/10 
s 32
f 18/49/8 17/50/8 32/51/8 33/52/8 
s 64
f 19/53/9 34/54/9 32/55/9 17/56/9 
s 32
f 20/57/11 10/58/11 35/59/11 36/60/11 
s 64
f 9/61/8 37/62/8 35/63/8 10/64/8 
s 32
f 12/65/10 11/66/10 38/67/10 39/68/10 
s 64
f 13/69/11 40/70/11 38/71/11 11/72/11 
s 4
f 37/73/12 9/74/12 41/75/12 42/76/12 
s 8
f 41/77/13 9/78/13 12/79/13 43/80/13 
s 4
f 43/81/14 12/82/14 39/83/14 44/84/14 
s 2
f 40/85/15 13/86/15 45/87/15 46/88/15 
s 8
f 45/89/16 13/90/16 15/91/16 47/92/16 
s 2
f 47/93/17 15/94/17 30/95/17 48/96/17 
s 4
f 31/97/18 16/98/18 49/99/18 50/100/18 
s 8
f 49/101/19 16/102/19 18/103/19 51/104/19 
s 4
f 51/105/20 18/106/20 33/107/20 52/108/20 
s 2
f 34/109/21 19/110/21 53/111/21 54/112/21 
s 8
f 53/113/22 19/114/22 20/115/22 55/116/22 
s 2
f 55/117/23 20/118/23 36/119/23 56/120/23 
s 4
f 26/121/24 21/122/24 22/123/24 27/124/24 
s 32
f 27/125/25 22/126/25 23/127/25 28/128/25 
s 4
f 28/129/26 23/130/26 24/131/26 25/132/26 
s 1
f 25/133/27 24/134/27 21/135/27 26/136/27 
s 2
f 51/137/9 52/138/9 50/139/9 49/140/9 
s 4
f 47/141/10 48/142/10 46/143/10 45/144/10 
s 2
f 43/145/11 44/146/11 42/147/11 41/148/11 
s 4
f 55/149/8 56/150/8 54/151/8 53/152/8 
s 2
f 57/153/28 58/154/28 59/155/28 60/156/28 
s 4
f 61/157/28 57/158/28 62/159/28 63/160/28 
s 2
f 64/161/28 61/162/28 65/163/28 66/164/28 
s 4
f 58/165/28 64/166/28 67/167/28 68/168/28 
s 8
f 64/169/8 58/170/8 69/171/8 70/172/8 
s 16
f 61/173/9 64/174/9 70/175/9 71/176/9 
s 8
f 57/177/10 61/178/10 71/179/10 72/180/10 
s 16
f 58/181/11 57/182/11 72/183/11 69/184/11 
s 2
f 73/39/28 74/38/28 75/37/28 76/40/28 
s 128
f 29/185/9 61/186/9 63/187/9 30/188/9 
s 256
f 29/189/10 31/190/10 65/191/10 61/192/10 
s 128
f 32/193/8 64/194/8 66/195/8 33/196/8 
s 256
f 32/197/9 34/198/9 67/199/9 64/200/9 
s 128
f 35/201/11 58/202/11 68/203/11 36/204/11 
s 256
f 35/205/8 37/206/8 59/207/8 58/208/8 
s 128
f 38/209/10 57/210/10 60/211/10 39/212/10 
s 256
f 38/213/11 40/214/11 62/215/29 57/216/29 
s 8
f 37/217/12 42/218/12 77/219/12 59/220/12 
s 4
f 60/221/30 59/222/30 77/223/30 78/224/30 
s 8
f 39/225/14 60/226/14 78/227/14 44/228/14 
f 40/229/15 46/230/15 79/231/15 62/232/15 
s 2
f 63/233/31 62/234/31 79/235/31 80/236/31 
s 8
f 30/237/17 63/238/17 80/239/17 48/240/17 
f 31/241/18 50/242/18 81/243/18 65/244/18 
s 4
f 66/245/32 65/246/32 81/247/32 82/248/32 
s 8
f 33/249/20 66/250/20 82/251/20 52/252/20 
f 34/253/21 54/254/21 83/255/21 67/256/21 
s 2
f 68/257/33 67/258/33 83/259/33 84/260/33 
s 8
f 36/261/23 68/262/23 84/263/23 56/264/23 
s 4
f 70/265/34 69/266/34 74/267/34 73/268/34 
s 32
f 71/269/35 70/270/35 73/271/35 76/272/35 
s 4
f 72/273/36 71/274/36 76/275/36 75/276/36 
s 1
f 69/277/37 72/278/37 75/279/37 74/280/37 
f 50/281/9 52/282/9 82/283/9 81/284/9 
f 46/285/10 48/286/10 80/287/10 79/288/10 
f 42/289/11 44/290/11 78/291/11 77/292/11 
f 54/293/8 56/294/8 84/295/8 83/296/8 
# 74 polygons

#
# object caltrop_coll
#

v  -0.9712 0.0000 0.5578
v  -1.0614 0.0000 -0.6070
v  -0.0595 0.0000 -1.1701
v  0.0144 0.0000 1.1144
v  -0.9712 1.7449 0.5578
v  0.0144 1.7713 1.1144
v  -0.0595 1.7713 -1.1701
v  -1.0614 1.7449 -0.6070
v  1.1035 0.0000 0.5525
v  1.0281 0.0000 -0.6338
v  1.0281 1.7278 -0.6338
v  1.1035 1.7278 0.5525
# 12 vertices

vn 0.0000 -1.0000 -0.0000
vn -0.0267 0.9996 0.0012
vn 0.0077 1.0000 -0.0006
vn 0.0070 1.0000 0.0001
vn -0.0252 0.9997 0.0020
vn -0.0189 0.0000 0.9998
vn -0.0210 0.0000 0.9998
vn -0.4917 0.0000 0.8708
vn 0.9980 0.0000 -0.0634
vn -0.0270 0.0000 -0.9996
vn -0.0292 0.0000 -0.9996
vn 0.4422 0.0000 -0.8969
vn -0.9970 0.0000 0.0772
vn 0.0386 0.9993 -0.0025
vn 0.0400 0.9992 -0.0016
vn 0.4585 0.0000 0.8887
vn -0.4899 0.0000 -0.8718
# 17 vertex normals

vt 1.0000 0.0000 0.0000
vt 1.0000 1.0000 0.0000
vt 0.4993 1.0000 0.0000
vt 0.4993 0.0000 0.0000
vt 0.0000 0.0000 0.0000
vt 0.5007 0.0000 0.0000
vt 0.5007 1.0000 0.0000
vt 0.0000 1.0000 0.0000
# 8 texture coords

g caltrop_coll
s 2
f 85/297/38 86/298/38 87/299/38 88/300/38 
s 4
f 89/301/39 90/302/40 91/303/41 92/304/42 
s 8
f 88/302/43 90/303/44 89/304/45 85/301/45 
s 16
f 93/301/46 94/297/46 95/298/46 96/304/46 
s 32
f 87/300/47 91/299/48 95/304/49 94/301/49 
s 64
f 86/301/50 85/297/50 89/298/50 92/304/50 
s 2
f 94/304/38 93/301/38 88/300/38 87/299/38 
s 4
f 90/302/40 96/297/51 95/298/52 91/303/41 
s 8
f 93/297/53 96/298/53 90/303/44 88/302/43 
s 32
f 86/297/54 92/298/54 91/299/48 87/300/47 
# 10 polygons

