# 3ds Max Wavefront OBJ Exporter v0.97b - (c)2007 guruware
# File Created: 03.11.2015 13:35:50

#
# object pivot
#

v  -0.0432 -0.0369 0.0432
v  -0.0432 -0.0369 -0.0432
v  0.0432 -0.0369 -0.0432
v  0.0432 -0.0369 0.0432
v  -0.0432 0.0496 0.0432
v  0.0432 0.0496 0.0432
v  0.0432 0.0496 -0.0432
v  -0.0432 0.0496 -0.0432
# 8 vertices

vn 0.0000 -1.0000 -0.0000
vn 0.0000 1.0000 -0.0000
vn 0.0000 0.0000 1.0000
vn 1.0000 0.0000 -0.0000
vn 0.0000 0.0000 -1.0000
vn -1.0000 0.0000 -0.0000
# 6 vertex normals

vt 1.0000 0.0000 0.0000
vt 1.0000 1.0000 0.0000
vt 0.0000 1.0000 0.0000
vt 0.0000 0.0000 0.0000
# 4 texture coords

g pivot
s 2
f 1/1/1 2/2/1 3/3/1 4/4/1 
s 4
f 5/4/2 6/1/2 7/2/2 8/3/2 
s 8
f 1/4/3 4/1/3 6/2/3 5/3/3 
s 16
f 4/4/4 3/1/4 7/2/4 6/3/4 
s 32
f 3/4/5 2/1/5 8/2/5 7/3/5 
s 64
f 2/4/6 1/1/6 5/2/6 8/3/6 
# 6 polygons

#
# object pressure_plate
#

v  -0.0369 -0.5365 0.0369
v  -0.0369 -0.5365 -0.0369
v  0.0000 -0.5365 -0.0369
v  0.0000 -0.5365 0.0369
v  0.0000 -0.1169 0.5000
v  -0.5000 -0.1169 0.5000
v  -0.5000 -0.1169 -0.5000
v  -0.5000 0.0657 0.5000
v  -0.5000 0.0657 -0.5000
v  0.0000 -0.1169 -0.5000
v  0.0000 0.0657 0.5000
v  0.0000 0.0657 -0.5000
v  0.0369 -0.5365 -0.0369
v  0.0369 -0.5365 0.0369
v  0.5000 -0.1169 0.5000
v  0.5000 -0.1169 -0.5000
v  0.5000 0.0657 -0.5000
v  0.5000 0.0657 0.5000
# 18 vertices

vn 0.0000 -1.0000 -0.0000
vn 0.0000 -0.7411 0.6714
vn -0.6714 -0.7411 -0.0000
vn -1.0000 0.0000 -0.0000
vn 0.0000 -0.7411 -0.6714
vn 0.0000 0.0000 1.0000
vn 0.0000 0.0000 -1.0000
vn 0.0000 1.0000 -0.0000
vn 0.6714 -0.7411 -0.0000
vn 1.0000 0.0000 -0.0000
# 10 vertex normals

vt 0.0820 0.0295 0.0000
vt 0.0820 0.1020 0.0000
vt 0.0457 0.1020 0.0000
vt 0.0457 0.0295 0.0000
vt 0.9080 0.2915 0.0000
vt 0.7136 0.4310 0.0000
vt 0.7192 0.0589 0.0000
vt 0.7335 0.0486 0.0000
vt 0.3068 0.4792 0.0000
vt 0.0133 0.2617 0.0000
vt 0.0133 0.2270 0.0000
vt 0.3068 0.0094 0.0000
vt 0.4340 0.4674 0.0000
vt 0.3506 0.4674 0.0000
vt 0.3506 0.0107 0.0000
vt 0.4340 0.0107 0.0000
vt 0.9762 0.0134 0.0000
vt 0.9834 0.2960 0.0000
vt 0.9667 0.2964 0.0000
vt 0.7501 0.0191 0.0000
vt 0.5569 0.0629 0.0000
vt 0.5569 0.3022 0.0000
vt 0.4695 0.3022 0.0000
vt 0.4695 0.0629 0.0000
vt 0.5967 0.2719 0.0000
vt 0.5967 0.0436 0.0000
vt 0.6801 0.0436 0.0000
vt 0.6801 0.2719 0.0000
vt 0.9870 0.5045 0.0000
vt 0.9843 0.9885 0.0000
vt 0.0162 0.9832 0.0000
vt 0.0189 0.4991 0.0000
vt 1.0457 0.1020 0.0000
vt 1.0820 0.1020 0.0000
vt 1.0820 0.0295 0.0000
vt 1.0457 0.0295 0.0000
vt 1.9080 0.2915 0.0000
vt 1.7335 0.0486 0.0000
vt 1.7192 0.0589 0.0000
vt 1.7136 0.4310 0.0000
vt 1.0133 0.2270 0.0000
vt 1.0133 0.2617 0.0000
vt 1.3068 0.4792 0.0000
vt 1.3068 0.0094 0.0000
vt 1.3506 0.0107 0.0000
vt 1.3506 0.4674 0.0000
vt 1.4340 0.4674 0.0000
vt 1.4340 0.0107 0.0000
vt 1.9762 0.0134 0.0000
vt 1.7501 0.0191 0.0000
vt 1.9667 0.2964 0.0000
vt 1.9834 0.2960 0.0000
vt 1.4695 0.3022 0.0000
vt 1.5569 0.3022 0.0000
vt 1.5569 0.0629 0.0000
vt 1.4695 0.0629 0.0000
vt 1.6801 0.0436 0.0000
vt 1.5967 0.0436 0.0000
vt 1.5967 0.2719 0.0000
vt 1.6801 0.2719 0.0000
vt 1.0162 0.9832 0.0000
vt 1.9843 0.9885 0.0000
vt 1.9870 0.5045 0.0000
vt 1.0189 0.4991 0.0000
# 64 texture coords

g pressure_plate
s 1
f 9/5/7 10/6/7 11/7/7 12/8/7 
s 2
f 13/9/8 14/10/8 9/11/8 12/12/8 
s 4
f 15/13/9 10/14/9 9/15/9 14/16/9 
s 1
f 14/17/10 16/18/10 17/19/10 15/20/10 
s 2
f 18/21/11 11/22/11 10/23/11 15/24/11 
s 8
f 19/25/12 16/26/12 14/27/12 13/28/12 
f 18/29/13 15/30/13 17/31/13 20/32/13 
s 2
f 20/33/14 17/34/14 16/35/14 19/36/14 
s 4
f 11/37/7 21/38/7 22/39/7 12/40/7 
s 16
f 13/41/8 12/42/8 22/43/8 23/44/8 
s 1
f 22/45/15 21/46/15 24/47/15 23/48/15 
s 2
f 25/49/16 26/50/16 23/51/16 24/52/16 
s 16
f 18/53/11 24/54/11 21/55/11 11/56/11 
s 4
f 23/57/12 26/58/12 19/59/12 13/60/12 
f 25/61/13 24/62/13 18/63/13 20/64/13 
s 1
f 26/65/14 25/66/14 20/67/14 19/68/14 
# 16 polygons

#
# object pressure_plate_coll
#

v  -0.0369 -0.5365 0.0369
v  -0.0369 -0.5365 -0.0369
v  0.0000 -0.5365 -0.0369
v  0.0000 -0.5365 0.0369
v  0.0000 -0.1169 0.5000
v  -0.5000 -0.1169 0.5000
v  -0.5000 -0.1169 -0.5000
v  -0.5000 0.0657 0.5000
v  -0.5000 0.0657 -0.5000
v  0.0000 -0.1169 -0.5000
v  0.0000 0.0657 0.5000
v  0.0000 0.0657 -0.5000
v  0.0369 -0.5365 -0.0369
v  0.0369 -0.5365 0.0369
v  0.5000 -0.1169 0.5000
v  0.5000 -0.1169 -0.5000
v  0.5000 0.0657 -0.5000
v  0.5000 0.0657 0.5000
# 18 vertices

vn 0.0000 -1.0000 -0.0000
vn 0.0000 -0.7411 0.6714
vn -0.6714 -0.7411 -0.0000
vn -1.0000 0.0000 -0.0000
vn 0.0000 -0.7411 -0.6714
vn 0.0000 0.0000 1.0000
vn 0.0000 0.0000 -1.0000
vn 0.0000 1.0000 -0.0000
vn 0.6714 -0.7411 -0.0000
vn 1.0000 0.0000 -0.0000
# 10 vertex normals

vt 0.0820 0.0295 0.0000
vt 0.0820 0.1020 0.0000
vt 0.0457 0.1020 0.0000
vt 0.0457 0.0295 0.0000
vt 0.9080 0.2915 0.0000
vt 0.7136 0.4310 0.0000
vt 0.7192 0.0589 0.0000
vt 0.7335 0.0486 0.0000
vt 0.3068 0.4792 0.0000
vt 0.0133 0.2617 0.0000
vt 0.0133 0.2270 0.0000
vt 0.3068 0.0094 0.0000
vt 0.4340 0.4674 0.0000
vt 0.3506 0.4674 0.0000
vt 0.3506 0.0107 0.0000
vt 0.4340 0.0107 0.0000
vt 0.9762 0.0134 0.0000
vt 0.9834 0.2960 0.0000
vt 0.9667 0.2964 0.0000
vt 0.7501 0.0191 0.0000
vt 0.5569 0.0629 0.0000
vt 0.5569 0.3022 0.0000
vt 0.4695 0.3022 0.0000
vt 0.4695 0.0629 0.0000
vt 0.5967 0.2719 0.0000
vt 0.5967 0.0436 0.0000
vt 0.6801 0.0436 0.0000
vt 0.6801 0.2719 0.0000
vt 0.9870 0.5045 0.0000
vt 0.9843 0.9885 0.0000
vt 0.0162 0.9832 0.0000
vt 0.0189 0.4991 0.0000
vt 1.0457 0.1020 0.0000
vt 1.0820 0.1020 0.0000
vt 1.0820 0.0295 0.0000
vt 1.0457 0.0295 0.0000
vt 1.9080 0.2915 0.0000
vt 1.7335 0.0486 0.0000
vt 1.7192 0.0589 0.0000
vt 1.7136 0.4310 0.0000
vt 1.0133 0.2270 0.0000
vt 1.0133 0.2617 0.0000
vt 1.3068 0.4792 0.0000
vt 1.3068 0.0094 0.0000
vt 1.3506 0.0107 0.0000
vt 1.3506 0.4674 0.0000
vt 1.4340 0.4674 0.0000
vt 1.4340 0.0107 0.0000
vt 1.9762 0.0134 0.0000
vt 1.7501 0.0191 0.0000
vt 1.9667 0.2964 0.0000
vt 1.9834 0.2960 0.0000
vt 1.4695 0.3022 0.0000
vt 1.5569 0.3022 0.0000
vt 1.5569 0.0629 0.0000
vt 1.4695 0.0629 0.0000
vt 1.6801 0.0436 0.0000
vt 1.5967 0.0436 0.0000
vt 1.5967 0.2719 0.0000
vt 1.6801 0.2719 0.0000
vt 1.0162 0.9832 0.0000
vt 1.9843 0.9885 0.0000
vt 1.9870 0.5045 0.0000
vt 1.0189 0.4991 0.0000
# 64 texture coords

g pressure_plate_coll
s 1
f 27/69/17 28/70/17 29/71/17 30/72/17 
s 2
f 31/73/18 32/74/18 27/75/18 30/76/18 
s 4
f 33/77/19 28/78/19 27/79/19 32/80/19 
s 1
f 32/81/20 34/82/20 35/83/20 33/84/20 
s 2
f 36/85/21 29/86/21 28/87/21 33/88/21 
s 8
f 37/89/22 34/90/22 32/91/22 31/92/22 
f 36/93/23 33/94/23 35/95/23 38/96/23 
s 2
f 38/97/24 35/98/24 34/99/24 37/100/24 
s 4
f 29/101/17 39/102/17 40/103/17 30/104/17 
s 16
f 31/105/18 30/106/18 40/107/18 41/108/18 
s 1
f 40/109/25 39/110/25 42/111/25 41/112/25 
s 2
f 43/113/26 44/114/26 41/115/26 42/116/26 
s 16
f 36/117/21 42/118/21 39/119/21 29/120/21 
s 4
f 41/121/22 44/122/22 37/123/22 31/124/22 
f 43/125/23 42/126/23 36/127/23 38/128/23 
s 1
f 44/129/24 43/130/24 38/131/24 37/132/24 
# 16 polygons

