# 3ds Max Wavefront OBJ Exporter v0.97b - (c)2007 guruware
# File Created: 29.10.2015 16:43:58

#
# object pivot
#

v  0.0500 -0.0500 0.0500
v  0.0500 0.0500 0.0500
v  -0.0500 0.0500 0.0500
v  -0.0500 -0.0500 0.0500
v  -0.0500 -0.0500 -0.0500
v  -0.0500 0.0500 -0.0500
v  0.0500 0.0500 -0.0500
v  0.0500 -0.0500 -0.0500
# 8 vertices

vn 0.0000 0.0000 1.0000
vn 0.0000 0.0000 -1.0000
vn 0.0000 1.0000 -0.0000
vn 1.0000 0.0000 -0.0000
vn 0.0000 -1.0000 -0.0000
vn -1.0000 0.0000 -0.0000
# 6 vertex normals

vt 0.0000 1.0000 0.0000
vt 0.0000 0.0000 0.0000
vt 1.0000 0.0000 0.0000
vt 1.0000 1.0000 0.0000
# 4 texture coords

g pivot
s off
f 1/1/1 2/2/1 3/3/1 
f 3/3/1 4/4/1 1/1/1 
f 5/1/2 6/2/2 7/3/2 
f 7/3/2 8/4/2 5/1/2 
f 2/3/3 7/4/3 6/1/3 
f 6/1/3 3/2/3 2/3/3 
f 7/1/4 2/2/4 1/3/4 
f 1/3/4 8/4/4 7/1/4 
f 5/4/5 8/1/5 1/2/5 
f 1/2/5 4/3/5 5/4/5 
f 6/4/6 5/1/6 4/2/6 
f 4/2/6 3/3/6 6/4/6 
# 12 faces

#
# object top_atch
#

v  0.0500 0.1605 0.0500
v  0.0500 0.2605 0.0500
v  -0.0500 0.2605 0.0500
v  -0.0500 0.1605 0.0500
v  -0.0500 0.1605 -0.0500
v  -0.0500 0.2605 -0.0500
v  0.0500 0.2605 -0.0500
v  0.0500 0.1605 -0.0500
# 8 vertices

vn 0.0000 0.0000 1.0000
vn 0.0000 0.0000 -1.0000
vn 0.0000 1.0000 -0.0000
vn 1.0000 0.0000 -0.0000
vn 0.0000 -1.0000 -0.0000
vn -1.0000 0.0000 -0.0000
# 6 vertex normals

vt 0.0000 1.0000 0.0000
vt 0.0000 0.0000 0.0000
vt 1.0000 0.0000 0.0000
vt 1.0000 1.0000 0.0000
# 4 texture coords

g top_atch
s off
f 9/5/7 10/6/7 11/7/7 
f 11/7/7 12/8/7 9/5/7 
f 13/5/8 14/6/8 15/7/8 
f 15/7/8 16/8/8 13/5/8 
f 10/7/9 15/8/9 14/5/9 
f 14/5/9 11/6/9 10/7/9 
f 15/5/10 10/6/10 9/7/10 
f 9/7/10 16/8/10 15/5/10 
f 13/8/11 16/5/11 9/6/11 
f 9/6/11 12/7/11 13/8/11 
f 14/8/12 13/5/12 12/6/12 
f 12/6/12 11/7/12 14/8/12 
# 12 faces

#
# object top_atch_roty
#

v  0.0050 0.2055 -0.0953
v  0.0050 0.2155 -0.0953
v  -0.0050 0.2155 -0.0953
v  -0.0050 0.2055 -0.0953
v  -0.0050 0.2055 -0.1053
v  -0.0050 0.2155 -0.1053
v  0.0050 0.2155 -0.1053
v  0.0050 0.2055 -0.1053
# 8 vertices

vn 0.0000 0.0000 1.0000
vn 0.0000 0.0000 -1.0000
vn 0.0000 1.0000 -0.0000
vn 1.0000 0.0000 -0.0000
vn 0.0000 -1.0000 -0.0000
vn -1.0000 0.0000 -0.0000
# 6 vertex normals

vt 0.0000 1.0000 0.0000
vt 0.0000 0.0000 0.0000
vt 1.0000 0.0000 0.0000
vt 1.0000 1.0000 0.0000
# 4 texture coords

g top_atch_roty
s off
f 17/9/13 18/10/13 19/11/13 
f 19/11/13 20/12/13 17/9/13 
f 21/9/14 22/10/14 23/11/14 
f 23/11/14 24/12/14 21/9/14 
f 18/11/15 23/12/15 22/9/15 
f 22/9/15 19/10/15 18/11/15 
f 23/9/16 18/10/16 17/11/16 
f 17/11/16 24/12/16 23/9/16 
f 21/12/17 24/9/17 17/10/17 
f 17/10/17 20/11/17 21/12/17 
f 22/12/18 21/9/18 20/10/18 
f 20/10/18 19/11/18 22/12/18 
# 12 faces

#
# object top_atch_rotx
#

v  0.1050 0.2055 0.0046
v  0.1050 0.2155 0.0046
v  0.0950 0.2155 0.0046
v  0.0950 0.2055 0.0046
v  0.0950 0.2055 -0.0054
v  0.0950 0.2155 -0.0054
v  0.1050 0.2155 -0.0054
v  0.1050 0.2055 -0.0054
# 8 vertices

vn 0.0000 0.0000 1.0000
vn 0.0000 0.0000 -1.0000
vn 0.0000 1.0000 -0.0000
vn 1.0000 0.0000 -0.0000
vn 0.0000 -1.0000 -0.0000
vn -1.0000 0.0000 -0.0000
# 6 vertex normals

vt 0.0000 1.0000 0.0000
vt 0.0000 0.0000 0.0000
vt 1.0000 0.0000 0.0000
vt 1.0000 1.0000 0.0000
# 4 texture coords

g top_atch_rotx
s off
f 25/13/19 26/14/19 27/15/19 
f 27/15/19 28/16/19 25/13/19 
f 29/13/20 30/14/20 31/15/20 
f 31/15/20 32/16/20 29/13/20 
f 26/15/21 31/16/21 30/13/21 
f 30/13/21 27/14/21 26/15/21 
f 31/13/22 26/14/22 25/15/22 
f 25/15/22 32/16/22 31/13/22 
f 29/16/23 32/13/23 25/14/23 
f 25/14/23 28/15/23 29/16/23 
f 30/16/24 29/13/24 28/14/24 
f 28/14/24 27/15/24 30/16/24 
# 12 faces

#
# object lever_handle
#

v  0.0720 0.0254 0.1322
v  0.0720 0.0254 -0.1322
v  0.1851 0.1385 -0.1322
v  0.1851 0.1385 0.1322
v  -0.1851 0.2825 0.1322
v  -0.0720 0.3956 0.1322
v  -0.0720 0.3956 -0.1322
v  -0.1851 0.2825 -0.1322
v  0.1851 0.2825 0.1322
v  0.1851 0.2825 -0.1322
v  0.0720 0.3956 -0.1322
v  0.0720 0.3956 0.1322
v  -0.0720 0.0254 -0.1322
v  -0.0720 0.0254 0.1322
v  -0.1851 0.1385 0.1322
v  -0.1851 0.1385 -0.1322
v  -0.0879 2.5141 0.0639
v  -0.0016 2.5200 0.0726
v  -0.0016 2.5217 -0.0027
v  -0.1284 2.5141 -0.0030
v  0.1310 0.2523 0.0720
v  0.0721 0.9308 0.0720
v  -0.0713 0.9717 0.0720
v  -0.1310 0.2523 0.0720
v  0.1769 0.2523 -0.0031
v  0.1041 0.9308 -0.0031
v  -0.1310 0.2523 -0.0718
v  -0.0713 0.9717 -0.0718
v  0.0721 0.9308 -0.0718
v  0.1310 0.2523 -0.0718
v  -0.1769 0.2523 -0.0031
v  -0.1033 0.9717 -0.0031
v  -0.0879 2.5141 -0.0637
v  -0.0016 2.5201 -0.0721
v  0.0752 1.8215 0.0768
v  -0.0724 1.8341 0.0768
v  -0.0588 1.7997 0.0658
v  0.0624 1.7997 0.0658
v  0.1271 1.8193 -0.0035
v  0.1055 1.7997 -0.0031
v  -0.0724 1.8341 -0.0762
v  0.0752 1.8215 -0.0762
v  0.0624 1.7997 -0.0656
v  -0.0588 1.7997 -0.0656
v  -0.1173 1.8363 -0.0035
v  -0.0943 1.7997 -0.0031
v  0.0544 2.4329 0.0501
v  -0.0787 2.4290 0.0501
v  -0.0823 2.3972 0.0768
v  0.0746 2.4083 0.0737
v  0.0717 2.4378 -0.0026
v  0.1109 2.4132 -0.0035
v  -0.0787 2.4290 -0.0505
v  0.0544 2.4329 -0.0505
v  0.0746 2.4083 -0.0732
v  -0.0823 2.3972 -0.0762
v  -0.1118 2.4290 -0.0026
v  -0.1263 2.3972 -0.0035
v  0.0854 2.3768 0.0768
v  0.1278 2.3746 -0.0035
v  0.0854 2.3771 -0.0762
v  0.0831 1.1985 0.0720
v  -0.0845 1.2369 0.0720
v  0.1139 1.2015 -0.0031
v  -0.0845 1.2369 -0.0718
v  0.0831 1.1985 -0.0718
v  -0.1153 1.2339 -0.0031
v  -0.0814 2.4586 0.0495
v  0.0015 2.4586 0.0563
v  0.0015 2.4881 0.0726
v  -0.0866 2.4858 0.0639
v  0.0878 2.4600 -0.0028
v  0.1859 2.4917 -0.0022
v  0.1681 2.4917 0.0380
v  0.0723 2.4600 0.0350
v  0.0723 2.4600 -0.0351
v  0.1681 2.4917 -0.0387
v  0.0015 2.4586 -0.0564
v  -0.0814 2.4586 -0.0498
v  -0.0866 2.4858 -0.0637
v  0.0015 2.4883 -0.0721
v  -0.1098 2.4586 -0.0028
v  -0.1310 2.4858 -0.0030
v  0.1801 2.5267 -0.0022
v  0.1639 2.5238 0.0380
v  0.1639 2.5238 -0.0387
# 86 vertices

vn 0.3827 -0.9239 -0.0000
vn 0.9239 -0.3827 -0.0000
vn -0.9239 0.3827 -0.0000
vn -0.3827 0.9239 -0.0000
vn 0.9239 0.3827 -0.0000
vn 0.3827 0.9239 -0.0000
vn -0.3827 -0.9239 -0.0000
vn -0.9239 -0.3827 -0.0000
vn -0.4251 0.5883 0.6879
vn 0.0014 0.6749 0.7379
vn -0.0430 0.9991 -0.0006
vn -0.7874 0.6161 -0.0184
vn 0.4934 0.0428 0.8688
vn 0.5217 0.0175 0.8529
vn -0.5232 0.0085 0.8521
vn -0.4967 0.0501 0.8665
vn 0.9949 0.0972 -0.0251
vn 0.9993 0.0302 -0.0201
vn -0.4739 0.0393 -0.8797
vn -0.5066 0.0135 -0.8621
vn 0.5092 0.0114 -0.8606
vn 0.4789 0.0507 -0.8764
vn -0.9955 0.0930 -0.0153
vn -0.9996 0.0232 -0.0154
vn -0.4072 0.5914 -0.6960
vn -0.0001 0.6756 -0.7372
vn 0.4608 -0.2763 0.8434
vn -0.5054 -0.2087 0.8373
vn -0.4694 -0.2159 0.8562
vn 0.3972 -0.3051 0.8655
vn 0.9329 -0.3593 -0.0249
vn 0.8891 -0.4563 -0.0363
vn -0.4829 -0.2040 -0.8516
vn 0.4409 -0.2810 -0.8524
vn 0.3779 -0.2875 -0.8801
vn -0.4390 -0.2031 -0.8752
vn -0.9663 -0.2567 -0.0187
vn -0.9600 -0.2798 -0.0142
vn 0.3985 0.4900 0.7753
vn -0.4934 0.3217 0.8081
vn -0.4578 0.2767 0.8449
vn 0.4111 0.4889 0.7694
vn 0.9823 0.1790 -0.0553
vn 0.7877 0.6158 -0.0189
vn -0.4717 0.3190 -0.8220
vn 0.3935 0.4944 -0.7751
vn 0.3994 0.4831 -0.7791
vn -0.4434 0.2707 -0.8545
vn -0.9581 0.2858 -0.0176
vn -0.9814 0.1903 -0.0233
vn 0.5342 0.1252 0.8360
vn 0.9833 0.1808 -0.0197
vn 0.5161 0.1244 -0.8474
vn 0.5517 -0.0050 0.8340
vn -0.5555 0.0049 0.8315
vn 0.9998 -0.0055 -0.0200
vn -0.5398 0.0008 -0.8418
vn 0.5395 0.0024 -0.8420
vn -0.9999 -0.0033 -0.0157
vn -0.5354 -0.2688 0.8007
vn 0.0679 -0.2871 0.9555
vn 0.0694 -0.2353 0.9694
vn -0.4777 -0.2472 0.8430
vn 0.5381 -0.8423 -0.0306
vn 0.8895 -0.4567 -0.0159
vn 0.5905 -0.4526 0.6682
vn 0.4974 -0.5349 0.6830
vn 0.4864 -0.5606 -0.6701
vn 0.5752 -0.4522 -0.6817
vn 0.0682 -0.2755 -0.9589
vn -0.5120 -0.2612 -0.8183
vn -0.4587 -0.2427 -0.8548
vn 0.0685 -0.2284 -0.9712
vn -0.9458 -0.3238 -0.0256
vn -0.9645 -0.2632 -0.0211
vn 0.7075 0.7065 -0.0149
vn 0.4420 0.6328 0.6358
vn 0.4276 0.6317 -0.6466
# 78 vertex normals

vt 0.0909 0.9936 0.0000
vt 0.0909 0.9328 0.0000
vt 0.1306 0.9328 0.0000
vt 0.1306 0.9936 0.0000
vt 0.2813 0.9936 0.0000
vt 0.2416 0.9936 0.0000
vt 0.2416 0.9328 0.0000
vt 0.2813 0.9328 0.0000
vt 0.1663 0.9937 0.0000
vt 0.1663 0.9328 0.0000
vt 0.2059 0.9328 0.0000
vt 0.2059 0.9936 0.0000
vt 0.3566 0.9328 0.0000
vt 0.3566 0.9936 0.0000
vt 0.3169 0.9936 0.0000
vt 0.3170 0.9328 0.0000
vt 0.3923 0.9936 0.0000
vt 0.3923 0.9328 0.0000
vt 0.5395 0.2769 0.0000
vt 0.5070 0.2800 0.0000
vt 0.5068 0.2537 0.0000
vt 0.5546 0.2535 0.0000
vt 0.9959 0.6916 0.0000
vt 0.8002 0.6736 0.0000
vt 0.7882 0.6298 0.0000
vt 0.9962 0.6187 0.0000
vt 0.9958 0.7143 0.0000
vt 0.7999 0.6979 0.0000
vt 0.9941 0.5819 0.0000
vt 0.7858 0.5797 0.0000
vt 0.7951 0.5361 0.0000
vt 0.9907 0.5105 0.0000
vt 0.9958 0.5985 0.0000
vt 0.7872 0.6042 0.0000
vt 0.5393 0.2323 0.0000
vt 0.5068 0.2295 0.0000
vt 0.7937 0.5152 0.0000
vt 0.9892 0.4903 0.0000
vt 0.5427 0.6764 0.0000
vt 0.5382 0.6333 0.0000
vt 0.5487 0.6350 0.0000
vt 0.5500 0.6738 0.0000
vt 0.5454 0.6983 0.0000
vt 0.5517 0.6942 0.0000
vt 0.5347 0.5888 0.0000
vt 0.5342 0.5441 0.0000
vt 0.5427 0.5468 0.0000
vt 0.5456 0.5875 0.0000
vt 0.5351 0.6110 0.0000
vt 0.5474 0.6113 0.0000
vt 0.5321 0.5171 0.0000
vt 0.5422 0.5221 0.0000
vt 0.3717 0.6806 0.0000
vt 0.3667 0.6410 0.0000
vt 0.3782 0.6414 0.0000
vt 0.3786 0.6846 0.0000
vt 0.3624 0.6947 0.0000
vt 0.3713 0.7060 0.0000
vt 0.3639 0.6045 0.0000
vt 0.3527 0.5668 0.0000
vt 0.3638 0.5593 0.0000
vt 0.3738 0.6003 0.0000
vt 0.3645 0.6223 0.0000
vt 0.3746 0.6200 0.0000
vt 0.3439 0.5567 0.0000
vt 0.3540 0.5437 0.0000
vt 0.3848 0.6865 0.0000
vt 0.3847 0.7118 0.0000
vt 0.3730 0.5558 0.0000
vt 0.3692 0.5373 0.0000
vt 0.7232 0.6734 0.0000
vt 0.7113 0.6269 0.0000
vt 0.7226 0.6968 0.0000
vt 0.7088 0.5855 0.0000
vt 0.7171 0.5382 0.0000
vt 0.7111 0.6053 0.0000
vt 0.7154 0.5184 0.0000
vt 0.9338 0.3559 0.0000
vt 0.9476 0.3886 0.0000
vt 0.9352 0.3943 0.0000
vt 0.9222 0.3605 0.0000
vt 0.9781 0.4239 0.0000
vt 0.9778 0.4660 0.0000
vt 0.9646 0.4571 0.0000
vt 0.9634 0.4159 0.0000
vt 0.9758 0.2400 0.0000
vt 0.9634 0.2478 0.0000
vt 0.9647 0.2066 0.0000
vt 0.9767 0.1980 0.0000
vt 0.9480 0.2752 0.0000
vt 0.9341 0.3078 0.0000
vt 0.9225 0.3033 0.0000
vt 0.9356 0.2695 0.0000
vt 0.9306 0.3309 0.0000
vt 0.9169 0.3309 0.0000
vt 0.9109 0.3633 0.0000
vt 0.9227 0.3987 0.0000
vt 0.9662 0.4768 0.0000
vt 0.9538 0.4632 0.0000
vt 0.9538 0.2007 0.0000
vt 0.9647 0.1877 0.0000
vt 0.9112 0.3003 0.0000
vt 0.9231 0.2651 0.0000
vt 0.9057 0.3308 0.0000
vt 0.9670 0.4020 0.0000
vt 0.9454 0.3535 0.0000
vt 0.9822 0.4148 0.0000
vt 0.9457 0.3103 0.0000
vt 0.9674 0.2617 0.0000
vt 0.9427 0.3311 0.0000
vt 0.9804 0.2489 0.0000
vt 0.4447 0.2682 0.0000
vt 0.4385 0.2542 0.0000
vt 0.4446 0.2414 0.0000
# 114 texture coords

g lever_handle
s 1
f 33/17/25 34/18/25 35/19/26 
f 35/19/26 36/20/26 33/17/25 
f 37/21/27 38/22/28 39/23/28 
f 39/23/28 40/24/27 37/21/27 
f 41/25/29 42/26/29 43/27/30 
f 43/27/30 44/28/30 41/25/29 
f 45/29/31 46/30/31 47/31/32 
f 47/31/32 48/32/32 45/29/31 
f 33/33/25 46/30/31 45/29/31 
f 45/29/31 34/34/25 33/33/25 
f 35/19/26 42/26/29 41/25/29 
f 41/25/29 36/20/26 35/19/26 
f 38/22/28 44/28/30 43/27/30 
f 43/27/30 39/23/28 38/22/28 
f 40/24/27 48/32/32 47/31/32 
f 47/31/32 37/21/27 40/24/27 
f 49/35/33 50/36/34 51/37/35 
f 51/37/35 52/38/36 49/35/33 
f 53/39/37 54/40/38 55/41/39 
f 55/41/39 56/42/40 53/39/37 
f 57/43/41 58/44/42 54/40/38 
f 54/40/38 53/39/37 57/43/41 
f 59/45/43 60/46/44 61/47/45 
f 61/47/45 62/48/46 59/45/43 
f 63/49/47 64/50/48 60/46/44 
f 60/46/44 59/45/43 63/49/47 
f 65/51/49 52/38/36 51/37/35 
f 51/37/35 66/52/50 65/51/49 
f 62/48/46 61/47/45 58/53/42 
f 58/53/42 57/54/41 62/48/46 
f 56/42/40 55/41/39 64/50/48 
f 64/50/48 63/49/47 56/42/40 
f 67/55/51 68/56/52 69/57/53 
f 69/57/53 70/58/54 67/55/51 
f 71/59/55 67/55/51 70/58/54 
f 70/58/54 72/60/56 71/59/55 
f 73/61/57 74/62/58 75/63/59 
f 75/63/59 76/64/60 73/61/57 
f 77/65/61 73/61/57 76/64/60 
f 76/64/60 78/66/62 77/65/61 
f 74/62/58 71/67/55 72/68/56 
f 72/68/56 75/63/59 74/62/58 
f 68/56/52 77/65/61 78/66/62 
f 78/66/62 69/57/53 68/56/52 
f 79/69/63 80/70/64 81/71/65 
f 81/71/65 82/72/66 79/69/63 
f 83/73/67 79/69/63 82/72/66 
f 82/72/66 84/74/68 83/73/67 
f 85/75/69 86/76/70 87/77/71 
f 87/77/71 88/78/72 85/75/69 
f 89/79/73 85/75/69 88/78/72 
f 88/78/72 90/80/74 89/79/73 
f 87/77/71 86/76/70 83/81/67 
f 83/81/67 84/82/68 87/77/71 
f 81/71/65 80/70/64 89/79/73 
f 89/79/73 90/80/74 81/71/65 
f 91/83/75 82/72/66 81/71/65 
f 84/74/68 82/72/66 91/83/75 
f 91/83/75 92/84/76 84/74/68 
f 88/78/72 87/77/71 93/85/77 
f 90/80/74 88/78/72 73/61/57 
f 73/61/57 77/65/61 90/80/74 
f 93/85/77 87/77/71 84/82/68 
f 84/82/68 92/86/76 93/85/77 
f 81/71/65 90/80/74 77/65/61 
f 77/65/61 68/56/52 81/71/65 
f 94/87/78 95/88/79 55/41/39 
f 55/41/39 54/40/38 94/87/78 
f 96/89/80 94/87/78 54/40/38 
f 54/40/38 58/44/42 96/89/80 
f 97/90/81 98/91/82 61/47/45 
f 61/47/45 60/46/44 97/90/81 
f 99/92/83 97/90/81 60/46/44 
f 60/46/44 64/50/48 99/92/83 
f 98/91/82 96/93/80 58/53/42 
f 58/53/42 61/47/45 98/91/82 
f 95/88/79 99/92/83 64/50/48 
f 64/50/48 55/41/39 95/88/79 
f 70/58/54 69/57/53 95/88/79 
f 95/88/79 94/87/78 70/58/54 
f 72/60/56 70/58/54 94/87/78 
f 94/87/78 96/89/80 72/60/56 
f 76/64/60 75/63/59 98/91/82 
f 98/91/82 97/90/81 76/64/60 
f 78/66/62 76/64/60 97/90/81 
f 97/90/81 99/92/83 78/66/62 
f 75/63/59 72/68/56 96/93/80 
f 96/93/80 98/91/82 75/63/59 
f 69/57/53 78/66/62 99/92/83 
f 99/92/83 95/88/79 69/57/53 
f 100/94/84 101/95/85 102/96/86 
f 102/96/86 103/97/87 100/94/84 
f 104/98/88 105/99/89 106/100/90 
f 106/100/90 107/101/91 104/98/88 
f 104/102/88 108/103/92 109/104/93 
f 109/104/93 105/105/89 104/102/88 
f 110/106/94 111/107/95 112/108/96 
f 112/108/96 113/109/97 110/106/94 
f 114/110/98 115/111/99 112/108/96 
f 112/108/96 111/107/95 114/110/98 
f 114/110/98 100/94/84 103/97/87 
f 103/97/87 115/111/99 114/110/98 
f 49/112/33 103/97/87 102/96/86 
f 102/96/86 50/113/34 49/112/33 
f 105/99/89 116/114/100 117/115/101 
f 117/115/101 106/100/90 105/99/89 
f 118/116/102 116/117/100 105/105/89 
f 105/105/89 109/104/93 118/116/102 
f 65/118/49 66/119/50 113/109/97 
f 113/109/97 112/108/96 65/118/49 
f 115/111/99 52/120/36 65/118/49 
f 65/118/49 112/108/96 115/111/99 
f 49/112/33 52/120/36 115/111/99 
f 115/111/99 103/97/87 49/112/33 
f 79/121/63 101/95/85 80/122/64 
f 104/98/88 107/101/91 79/121/63 
f 79/121/63 83/123/67 104/98/88 
f 85/124/69 110/106/94 86/125/70 
f 114/110/98 111/107/95 85/124/69 
f 85/124/69 89/126/73 114/110/98 
f 108/103/92 104/102/88 83/127/67 
f 83/127/67 86/125/70 108/103/92 
f 80/122/64 100/94/84 114/110/98 
f 114/110/98 89/126/73 80/122/64 
f 85/124/69 111/107/95 110/106/94 
f 110/106/94 108/103/92 86/125/70 
f 79/121/63 107/101/91 101/95/85 
f 101/95/85 100/94/84 80/122/64 
f 107/101/91 106/100/90 102/96/86 
f 102/96/86 101/95/85 107/101/91 
f 106/100/90 117/115/101 50/113/34 
f 50/113/34 102/96/86 106/100/90 
f 117/128/101 116/129/100 51/37/35 
f 51/37/35 50/36/34 117/128/101 
f 51/37/35 116/129/100 118/130/102 
f 118/130/102 66/52/50 51/37/35 
f 66/119/50 118/116/102 109/104/93 
f 109/104/93 113/109/97 66/119/50 
f 113/109/97 109/104/93 108/103/92 
f 108/103/92 110/106/94 113/109/97 
f 68/56/52 67/55/51 91/83/75 
f 91/83/75 81/71/65 68/56/52 
f 67/55/51 71/59/55 92/84/76 
f 92/84/76 91/83/75 67/55/51 
f 92/86/76 71/67/55 74/62/58 
f 74/62/58 93/85/77 92/86/76 
f 88/78/72 93/85/77 74/62/58 
f 74/62/58 73/61/57 88/78/72 
# 148 faces

#
# object handle_coll
#

v  -0.1403 0.0969 0.0842
v  -0.1403 0.0969 -0.0842
v  0.1403 0.0969 -0.0842
v  0.1403 0.0969 0.0842
v  -0.1403 2.5187 0.0842
v  0.1403 2.5187 0.0842
v  0.1403 2.5187 -0.0842
v  -0.1403 2.5187 -0.0842
# 8 vertices

vn 0.0000 -1.0000 -0.0000
vn 0.0000 1.0000 -0.0000
vn 0.0000 0.0000 1.0000
vn 1.0000 0.0000 -0.0000
vn 0.0000 0.0000 -1.0000
vn -1.0000 0.0000 -0.0000
# 6 vertex normals

vt 1.0000 0.0000 0.0000
vt 1.0000 1.0000 0.0000
vt 0.0000 1.0000 0.0000
vt 0.0000 0.0000 0.0000
# 4 texture coords

g handle_coll
s 2
f 119/131/103 120/132/103 121/133/103 
f 121/133/103 122/134/103 119/131/103 
s 4
f 123/134/104 124/131/104 125/132/104 
f 125/132/104 126/133/104 123/134/104 
s 8
f 119/134/105 122/131/105 124/132/105 
f 124/132/105 123/133/105 119/134/105 
s 16
f 122/134/106 121/131/106 125/132/106 
f 125/132/106 124/133/106 122/134/106 
s 32
f 121/134/107 120/131/107 126/132/107 
f 126/132/107 125/133/107 121/134/107 
s 64
f 120/134/108 119/131/108 123/132/108 
f 123/132/108 126/133/108 120/134/108 
# 12 faces

