# 3ds Max Wavefront OBJ Exporter v0.97b - (c)2007 guruware
# File Created: 29.10.2015 16:43:40

#
# object pivot
#

v  0.0500 -0.0500 0.0500
v  0.0500 0.0500 0.0500
v  -0.0500 0.0500 0.0500
v  -0.0500 -0.0500 0.0500
v  -0.0500 -0.0500 -0.0500
v  -0.0500 0.0500 -0.0500
v  0.0500 0.0500 -0.0500
v  0.0500 -0.0500 -0.0500
# 8 vertices

vn 0.0000 0.0000 1.0000
vn 0.0000 0.0000 -1.0000
vn 0.0000 1.0000 -0.0000
vn 1.0000 0.0000 -0.0000
vn 0.0000 -1.0000 -0.0000
vn -1.0000 0.0000 -0.0000
# 6 vertex normals

vt 0.0000 1.0000 0.0000
vt 0.0000 0.0000 0.0000
vt 1.0000 0.0000 0.0000
vt 1.0000 1.0000 0.0000
# 4 texture coords

g pivot
s off
f 1/1/1 2/2/1 3/3/1 
f 3/3/1 4/4/1 1/1/1 
f 5/1/2 6/2/2 7/3/2 
f 7/3/2 8/4/2 5/1/2 
f 2/3/3 7/4/3 6/1/3 
f 6/1/3 3/2/3 2/3/3 
f 7/1/4 2/2/4 1/3/4 
f 1/3/4 8/4/4 7/1/4 
f 5/4/5 8/1/5 1/2/5 
f 1/2/5 4/3/5 5/4/5 
f 6/4/6 5/1/6 4/2/6 
f 4/2/6 3/3/6 6/4/6 
# 12 faces

#
# object top_atch
#

v  0.0500 0.1605 0.0500
v  0.0500 0.2605 0.0500
v  -0.0500 0.2605 0.0500
v  -0.0500 0.1605 0.0500
v  -0.0500 0.1605 -0.0500
v  -0.0500 0.2605 -0.0500
v  0.0500 0.2605 -0.0500
v  0.0500 0.1605 -0.0500
# 8 vertices

vn 0.0000 0.0000 1.0000
vn 0.0000 0.0000 -1.0000
vn 0.0000 1.0000 -0.0000
vn 1.0000 0.0000 -0.0000
vn 0.0000 -1.0000 -0.0000
vn -1.0000 0.0000 -0.0000
# 6 vertex normals

vt 0.0000 1.0000 0.0000
vt 0.0000 0.0000 0.0000
vt 1.0000 0.0000 0.0000
vt 1.0000 1.0000 0.0000
# 4 texture coords

g top_atch
s off
f 9/5/7 10/6/7 11/7/7 
f 11/7/7 12/8/7 9/5/7 
f 13/5/8 14/6/8 15/7/8 
f 15/7/8 16/8/8 13/5/8 
f 10/7/9 15/8/9 14/5/9 
f 14/5/9 11/6/9 10/7/9 
f 15/5/10 10/6/10 9/7/10 
f 9/7/10 16/8/10 15/5/10 
f 13/8/11 16/5/11 9/6/11 
f 9/6/11 12/7/11 13/8/11 
f 14/8/12 13/5/12 12/6/12 
f 12/6/12 11/7/12 14/8/12 
# 12 faces

#
# object top_atch_roty
#

v  0.0050 0.2055 -0.0953
v  0.0050 0.2155 -0.0953
v  -0.0050 0.2155 -0.0953
v  -0.0050 0.2055 -0.0953
v  -0.0050 0.2055 -0.1053
v  -0.0050 0.2155 -0.1053
v  0.0050 0.2155 -0.1053
v  0.0050 0.2055 -0.1053
# 8 vertices

vn 0.0000 0.0000 1.0000
vn 0.0000 0.0000 -1.0000
vn 0.0000 1.0000 -0.0000
vn 1.0000 0.0000 -0.0000
vn 0.0000 -1.0000 -0.0000
vn -1.0000 0.0000 -0.0000
# 6 vertex normals

vt 0.0000 1.0000 0.0000
vt 0.0000 0.0000 0.0000
vt 1.0000 0.0000 0.0000
vt 1.0000 1.0000 0.0000
# 4 texture coords

g top_atch_roty
s off
f 17/9/13 18/10/13 19/11/13 
f 19/11/13 20/12/13 17/9/13 
f 21/9/14 22/10/14 23/11/14 
f 23/11/14 24/12/14 21/9/14 
f 18/11/15 23/12/15 22/9/15 
f 22/9/15 19/10/15 18/11/15 
f 23/9/16 18/10/16 17/11/16 
f 17/11/16 24/12/16 23/9/16 
f 21/12/17 24/9/17 17/10/17 
f 17/10/17 20/11/17 21/12/17 
f 22/12/18 21/9/18 20/10/18 
f 20/10/18 19/11/18 22/12/18 
# 12 faces

#
# object top_atch_rotx
#

v  0.1050 0.2055 0.0046
v  0.1050 0.2155 0.0046
v  0.0950 0.2155 0.0046
v  0.0950 0.2055 0.0046
v  0.0950 0.2055 -0.0054
v  0.0950 0.2155 -0.0054
v  0.1050 0.2155 -0.0054
v  0.1050 0.2055 -0.0054
# 8 vertices

vn 0.0000 0.0000 1.0000
vn 0.0000 0.0000 -1.0000
vn 0.0000 1.0000 -0.0000
vn 1.0000 0.0000 -0.0000
vn 0.0000 -1.0000 -0.0000
vn -1.0000 0.0000 -0.0000
# 6 vertex normals

vt 0.0000 1.0000 0.0000
vt 0.0000 0.0000 0.0000
vt 1.0000 0.0000 0.0000
vt 1.0000 1.0000 0.0000
# 4 texture coords

g top_atch_rotx
s off
f 25/13/19 26/14/19 27/15/19 
f 27/15/19 28/16/19 25/13/19 
f 29/13/20 30/14/20 31/15/20 
f 31/15/20 32/16/20 29/13/20 
f 26/15/21 31/16/21 30/13/21 
f 30/13/21 27/14/21 26/15/21 
f 31/13/22 26/14/22 25/15/22 
f 25/15/22 32/16/22 31/13/22 
f 29/16/23 32/13/23 25/14/23 
f 25/14/23 28/15/23 29/16/23 
f 30/16/24 29/13/24 28/14/24 
f 28/14/24 27/15/24 30/16/24 
# 12 faces

#
# object lever_base
#

v  -0.5677 0.2066 -0.2695
v  0.5677 0.2066 -0.2695
v  0.6042 -0.0000 -0.2695
v  -0.6042 0.0000 -0.2695
v  0.6786 0.2470 -0.3006
v  0.7222 -0.0000 -0.3006
v  0.6042 -0.0000 -0.3006
v  0.5677 0.2066 -0.3006
v  -0.7222 0.0000 -0.3006
v  -0.6786 0.2470 -0.3006
v  -0.5677 0.2066 -0.3006
v  -0.6042 0.0000 -0.3006
v  -0.5532 0.4642 -0.3006
v  -0.4628 0.3884 -0.3006
v  -0.3611 0.6254 -0.3006
v  -0.3021 0.5232 -0.3006
v  -0.1254 0.7112 -0.3006
v  -0.1049 0.5950 -0.3006
v  0.1254 0.7112 -0.3006
v  0.1049 0.5950 -0.3006
v  0.3611 0.6254 -0.3006
v  0.3021 0.5232 -0.3006
v  0.5532 0.4642 -0.3006
v  0.4628 0.3884 -0.3006
v  -0.3021 0.5232 -0.2695
v  0.3021 0.5232 -0.2695
v  0.4628 0.3884 -0.2695
v  -0.4628 0.3884 -0.2695
v  -0.1049 0.5950 -0.2695
v  0.1049 0.5950 -0.2695
v  0.6851 0.2105 -0.1304
v  0.6786 0.2470 -0.1304
v  0.3611 0.6254 -0.1304
v  0.5532 0.4642 -0.1304
v  -0.1254 0.7112 -0.1304
v  0.1254 0.7112 -0.1304
v  -0.5532 0.4642 -0.1304
v  -0.3611 0.6254 -0.1304
v  -0.6786 0.2470 -0.1304
v  -0.6851 0.2105 -0.1304
v  -0.6050 0.2105 -0.1304
v  0.6050 0.2105 -0.1304
v  -0.7222 -0.1444 -0.3006
v  -0.6042 -0.1444 -0.3006
v  -0.6042 -0.1444 -0.2695
v  -0.5677 0.2066 0.2695
v  -0.6042 0.0000 0.2695
v  0.6042 0.0000 0.2695
v  0.5677 0.2066 0.2695
v  0.6786 0.2470 0.3006
v  0.5677 0.2066 0.3006
v  0.6042 0.0000 0.3006
v  0.7222 0.0000 0.3006
v  -0.7222 0.0000 0.3006
v  -0.6042 0.0000 0.3006
v  -0.5677 0.2066 0.3006
v  -0.6786 0.2470 0.3006
v  -0.4628 0.3884 0.3006
v  -0.5532 0.4642 0.3006
v  -0.3021 0.5232 0.3006
v  -0.3611 0.6254 0.3006
v  -0.1049 0.5950 0.3006
v  -0.1254 0.7112 0.3006
v  0.1049 0.5950 0.3006
v  0.1254 0.7112 0.3006
v  0.3021 0.5232 0.3006
v  0.3611 0.6254 0.3006
v  0.4628 0.3884 0.3006
v  0.5532 0.4642 0.3006
v  -0.3021 0.5232 0.2695
v  -0.4628 0.3884 0.2695
v  0.4628 0.3884 0.2695
v  0.3021 0.5232 0.2695
v  -0.1049 0.5950 0.2695
v  0.1049 0.5950 0.2695
v  0.6851 0.2105 0.1304
v  0.6786 0.2470 0.1304
v  0.5532 0.4642 0.1304
v  0.3611 0.6254 0.1304
v  0.1254 0.7112 0.1304
v  -0.1254 0.7112 0.1304
v  -0.3611 0.6254 0.1304
v  -0.5532 0.4642 0.1304
v  -0.6786 0.2470 0.1304
v  -0.6851 0.2105 0.1304
v  0.6050 0.2105 0.1304
v  0.7222 -0.1444 0.3006
v  0.6042 -0.1444 0.3006
v  0.6042 -0.1444 0.2695
v  0.6042 -0.1444 -0.2695
v  -0.6042 -0.1444 0.2695
v  -0.6042 -0.1444 0.3006
v  -0.7222 -0.1444 0.3006
v  0.6042 -0.1444 -0.3006
v  0.7222 -0.1444 -0.3006
v  -0.5775 0.1345 0.1304
v  0.5775 0.1345 0.1304
v  0.5775 0.1345 -0.1304
v  -0.5775 0.1345 -0.1304
v  -0.6050 0.2105 0.1304
# 100 vertices

vn -0.0000 -0.0000 -1.0000
vn 0.0000 -0.0000 -1.0000
vn -0.6838 -0.0598 -0.7273
vn -0.6233 -0.2269 -0.7484
vn 0.6233 -0.2269 -0.7484
vn 0.6838 -0.0598 -0.7273
vn 0.5081 -0.4264 -0.7484
vn -0.0000 0.0000 -1.0000
vn 0.3316 -0.5744 -0.7484
vn 0.1152 -0.6532 -0.7484
vn 0.0000 0.0000 -1.0000
vn -0.1152 -0.6532 -0.7484
vn -0.3316 -0.5744 -0.7484
vn -0.5081 -0.4264 -0.7484
vn -0.9962 -0.0872 0.0000
vn -0.9397 -0.3420 0.0000
vn 0.9397 -0.3420 0.0000
vn 0.9962 -0.0872 0.0000
vn 0.7660 -0.6428 0.0000
vn 0.5000 -0.8660 0.0000
vn 0.1736 -0.9848 0.0000
vn -0.1736 -0.9848 0.0000
vn -0.5000 -0.8660 0.0000
vn -0.7660 -0.6428 0.0000
vn 0.9848 0.1736 -0.0000
vn 0.9962 0.0872 -0.0000
vn 0.9397 0.3420 -0.0000
vn 0.7660 0.6428 -0.0000
vn 0.5000 0.8660 -0.0000
vn 0.1736 0.9848 -0.0000
vn -0.1736 0.9848 -0.0000
vn -0.5000 0.8660 -0.0000
vn -0.7660 0.6428 0.0000
vn -0.9397 0.3420 0.0000
vn 0.0000 -0.0000 1.0000
vn -0.0000 -0.0000 1.0000
vn -0.9848 0.1736 0.0000
vn -0.9962 0.0872 0.0000
vn -0.0000 -1.0000 0.0000
vn 0.0000 0.0000 1.0000
vn -0.6233 -0.2269 0.7484
vn -0.6838 -0.0598 0.7273
vn -0.0000 0.0000 1.0000
vn 0.6838 -0.0598 0.7273
vn 0.6233 -0.2269 0.7484
vn 0.5081 -0.4264 0.7484
vn 0.3316 -0.5744 0.7484
vn 0.1152 -0.6532 0.7484
vn -0.1152 -0.6532 0.7484
vn -0.3316 -0.5744 0.7484
vn -0.5081 -0.4264 0.7484
vn -0.9397 -0.3420 -0.0000
vn -0.9962 -0.0872 -0.0000
vn 0.9962 -0.0872 -0.0000
vn 0.9397 -0.3420 -0.0000
vn 0.7660 -0.6428 -0.0000
vn 0.5000 -0.8660 -0.0000
vn 0.1736 -0.9848 -0.0000
vn -0.1736 -0.9848 -0.0000
vn -0.5000 -0.8660 -0.0000
vn -0.7660 -0.6428 -0.0000
vn 0.9848 0.1736 0.0000
vn 0.9397 0.3420 0.0000
vn 0.9962 0.0872 0.0000
vn 0.5000 0.8660 0.0000
vn 0.1736 0.9848 0.0000
vn -0.1736 0.9848 0.0000
vn -0.5000 0.8660 0.0000
vn -0.7660 0.6428 -0.0000
vn -0.9397 0.3420 -0.0000
vn -0.9848 0.1736 -0.0000
vn -0.9962 0.0872 -0.0000
vn 0.0000 -1.0000 0.0000
vn 0.0000 -1.0000 -0.0000
vn 0.0000 1.0000 -0.0000
vn -0.5746 0.8184 -0.0000
vn 0.5746 0.8184 -0.0000
vn -0.0000 1.0000 -0.0000
vn -1.0000 0.0000 -0.0000
vn 0.7071 -0.0000 -0.7071
vn 1.0000 0.0000 0.0000
vn -0.7071 -0.0000 -0.7071
vn -1.0000 0.0000 0.0000
vn 1.0000 0.0000 -0.0000
vn -0.7071 0.0000 0.7071
vn -1.0000 -0.0000 -0.0000
vn 0.7071 0.0000 0.7071
vn 1.0000 -0.0000 -0.0000
# 88 vertex normals

vt 0.4760 0.1448 0.0000
vt 0.0228 0.1449 0.0000
vt 0.0083 0.0624 0.0000
vt 0.4906 0.0624 0.0000
vt 0.9782 0.8595 0.0000
vt 0.9929 0.9399 0.0000
vt 0.9530 0.9399 0.0000
vt 0.9406 0.8726 0.0000
vt 0.5035 0.9399 0.0000
vt 0.5183 0.8595 0.0000
vt 0.5559 0.8726 0.0000
vt 0.5435 0.9399 0.0000
vt 0.5608 0.7887 0.0000
vt 0.5914 0.8134 0.0000
vt 0.6259 0.7362 0.0000
vt 0.6459 0.7695 0.0000
vt 0.7057 0.7083 0.0000
vt 0.7127 0.7461 0.0000
vt 0.7907 0.7083 0.0000
vt 0.7838 0.7461 0.0000
vt 0.8706 0.7362 0.0000
vt 0.8506 0.7695 0.0000
vt 0.9357 0.7887 0.0000
vt 0.9051 0.8134 0.0000
vt 0.3700 0.2712 0.0000
vt 0.1289 0.2712 0.0000
vt 0.0647 0.2174 0.0000
vt 0.4342 0.2174 0.0000
vt 0.2913 0.2999 0.0000
vt 0.2076 0.2999 0.0000
vt 0.9421 0.9423 0.0000
vt 0.9304 0.8783 0.0000
vt 0.5668 0.8783 0.0000
vt 0.5551 0.9423 0.0000
vt 0.6004 0.8221 0.0000
vt 0.6519 0.7803 0.0000
vt 0.7150 0.7581 0.0000
vt 0.7822 0.7581 0.0000
vt 0.8453 0.7803 0.0000
vt 0.8968 0.8221 0.0000
vt 0.2770 0.3601 0.0000
vt 0.2178 0.3073 0.0000
vt 0.2872 0.3069 0.0000
vt 0.2874 0.3600 0.0000
vt 0.3566 0.3065 0.0000
vt 0.4262 0.3062 0.0000
vt 0.4264 0.3593 0.0000
vt 0.3569 0.3596 0.0000
vt 0.4959 0.3061 0.0000
vt 0.5655 0.3063 0.0000
vt 0.5653 0.3593 0.0000
vt 0.4958 0.3591 0.0000
vt 0.6351 0.3067 0.0000
vt 0.7045 0.3070 0.0000
vt 0.7045 0.3601 0.0000
vt 0.6349 0.3597 0.0000
vt 0.7738 0.3068 0.0000
vt 0.7741 0.3599 0.0000
vt 0.3955 0.8239 0.0000
vt 0.1014 0.8233 0.0000
vt 0.1525 0.7759 0.0000
vt 0.3445 0.7762 0.0000
vt 0.7845 0.3600 0.0000
vt 0.8432 0.3067 0.0000
vt 0.4092 0.8988 0.0000
vt 0.4288 0.8880 0.0000
vt 0.4305 0.8988 0.0000
vt 0.0875 0.8982 0.0000
vt 0.2152 0.7507 0.0000
vt 0.2819 0.7508 0.0000
vt 0.0049 0.6889 0.0000
vt 0.0049 0.6567 0.0000
vt 0.0136 0.6567 0.0000
vt 0.5160 0.1448 0.0000
vt 0.5014 0.0623 0.0000
vt 0.9837 0.0623 0.0000
vt 0.9692 0.1447 0.0000
vt 0.0173 0.8377 0.0000
vt 0.0549 0.8509 0.0000
vt 0.0425 0.9182 0.0000
vt 0.0025 0.9182 0.0000
vt 0.4919 0.9182 0.0000
vt 0.4519 0.9182 0.0000
vt 0.4396 0.8509 0.0000
vt 0.4772 0.8377 0.0000
vt 0.4040 0.7917 0.0000
vt 0.4347 0.7670 0.0000
vt 0.3496 0.7478 0.0000
vt 0.3696 0.7145 0.0000
vt 0.2828 0.7244 0.0000
vt 0.2897 0.6866 0.0000
vt 0.2117 0.7244 0.0000
vt 0.2047 0.6866 0.0000
vt 0.1449 0.7478 0.0000
vt 0.1249 0.7145 0.0000
vt 0.0904 0.7917 0.0000
vt 0.0598 0.7670 0.0000
vt 0.6220 0.2711 0.0000
vt 0.5578 0.2173 0.0000
vt 0.9273 0.2173 0.0000
vt 0.8632 0.2711 0.0000
vt 0.7007 0.2998 0.0000
vt 0.7845 0.2998 0.0000
vt 0.0658 0.8566 0.0000
vt 0.0541 0.9206 0.0000
vt 0.4411 0.9206 0.0000
vt 0.4294 0.8566 0.0000
vt 0.3958 0.8003 0.0000
vt 0.3443 0.7586 0.0000
vt 0.2812 0.7364 0.0000
vt 0.2140 0.7364 0.0000
vt 0.1509 0.7586 0.0000
vt 0.0994 0.8003 0.0000
vt 0.2774 0.4416 0.0000
vt 0.2878 0.4416 0.0000
vt 0.2880 0.4947 0.0000
vt 0.2186 0.4949 0.0000
vt 0.3573 0.4946 0.0000
vt 0.3573 0.4415 0.0000
vt 0.4270 0.4418 0.0000
vt 0.4267 0.4949 0.0000
vt 0.4963 0.4953 0.0000
vt 0.4965 0.4422 0.0000
vt 0.5660 0.4424 0.0000
vt 0.5660 0.4955 0.0000
vt 0.6356 0.4954 0.0000
vt 0.6355 0.4423 0.0000
vt 0.7050 0.4419 0.0000
vt 0.7052 0.4950 0.0000
vt 0.7744 0.4416 0.0000
vt 0.7746 0.4947 0.0000
vt 0.8448 0.7987 0.0000
vt 0.8958 0.8464 0.0000
vt 0.6017 0.8458 0.0000
vt 0.6528 0.7983 0.0000
vt 0.7848 0.4415 0.0000
vt 0.8440 0.4943 0.0000
vt 0.9290 0.9105 0.0000
vt 0.9307 0.9213 0.0000
vt 0.9095 0.9212 0.0000
vt 0.7822 0.7733 0.0000
vt 0.7155 0.7731 0.0000
vt 0.1713 0.2951 0.0000
vt 0.1713 0.3272 0.0000
vt 0.1627 0.3272 0.0000
vt 0.0136 0.3272 0.0000
vt 0.1627 0.6567 0.0000
vt 0.1713 0.6567 0.0000
vt 0.1713 0.6889 0.0000
vt 0.0050 0.3272 0.0000
vt 0.0050 0.2951 0.0000
vt 0.3364 0.3692 0.0000
vt 0.3575 0.3692 0.0000
vt 0.3576 0.4343 0.0000
vt 0.3364 0.4343 0.0000
vt 0.6847 0.4342 0.0000
vt 0.3790 0.4343 0.0000
vt 0.3789 0.3692 0.0000
vt 0.6847 0.3691 0.0000
vt 0.7061 0.3691 0.0000
vt 0.7273 0.3691 0.0000
vt 0.7273 0.4342 0.0000
vt 0.7061 0.4342 0.0000
vt 0.0662 0.8981 0.0000
vt 0.0680 0.8874 0.0000
vt 0.5878 0.9207 0.0000
vt 0.5665 0.9206 0.0000
vt 0.5682 0.9098 0.0000
vt 0.4019 0.9212 0.0000
vt 0.0948 0.9206 0.0000
vt 0.9021 0.9437 0.0000
vt 0.5950 0.9431 0.0000
vt 0.8831 0.3066 0.0000
vt 0.8839 0.4941 0.0000
vt 0.5435 0.9870 0.0000
vt 0.5035 0.9870 0.0000
vt 0.5551 0.9870 0.0000
vt 0.0083 0.0047 0.0000
vt 0.4906 0.0047 0.0000
vt 0.9530 0.9870 0.0000
vt 0.9421 0.9870 0.0000
vt 0.9929 0.9870 0.0000
vt 0.1787 0.4950 0.0000
vt 0.1779 0.3074 0.0000
vt 0.0425 0.9652 0.0000
vt 0.0025 0.9652 0.0000
vt 0.0541 0.9653 0.0000
vt 0.5014 0.0046 0.0000
vt 0.9837 0.0046 0.0000
vt 0.4519 0.9652 0.0000
vt 0.4411 0.9653 0.0000
vt 0.4919 0.9652 0.0000
# 192 texture coords

g lever_base
s 2
f 33/17/25 34/18/25 35/19/25 
f 35/19/25 36/20/25 33/17/25 
s 4
f 37/21/26 38/22/26 39/23/27 
f 39/23/27 40/24/28 37/21/26 
f 41/25/25 42/26/25 43/27/29 
f 43/27/29 44/28/30 41/25/25 
f 42/26/25 45/29/25 46/30/31 
f 46/30/31 43/27/29 42/26/25 
f 45/29/25 47/31/32 48/32/33 
f 48/32/33 46/30/31 45/29/25 
f 47/31/32 49/33/32 50/34/34 
f 50/34/34 48/32/33 47/31/32 
f 49/33/32 51/35/35 52/36/36 
f 52/36/36 50/34/34 49/33/32 
f 51/35/35 53/37/35 54/38/37 
f 54/38/37 52/36/36 51/35/35 
f 53/37/35 55/39/26 56/40/38 
f 56/40/38 54/38/37 53/37/35 
f 55/39/26 37/21/26 40/24/28 
f 40/24/28 56/40/38 55/39/26 
s 2
f 57/41/26 58/42/26 59/43/26 
f 59/43/26 60/44/26 57/41/26 
f 34/18/25 33/17/25 60/44/26 
f 60/44/26 59/43/26 34/18/25 
f 61/45/26 62/46/26 58/42/26 
f 58/42/26 57/41/26 61/45/26 
s 4
f 40/24/28 39/23/27 35/47/39 
f 35/47/39 34/48/40 40/24/28 
f 44/28/30 43/27/29 33/49/41 
f 33/49/41 36/50/42 44/28/30 
f 43/27/29 46/30/31 60/51/43 
f 60/51/43 33/49/41 43/27/29 
f 46/30/31 48/32/33 57/52/44 
f 57/52/44 60/51/43 46/30/31 
f 48/32/33 50/34/34 61/53/45 
f 61/53/45 57/52/44 48/32/33 
f 50/34/34 52/36/36 62/54/46 
f 62/54/46 61/53/45 50/34/34 
f 52/36/36 54/38/37 58/55/47 
f 58/55/47 62/54/46 52/36/36 
f 54/38/37 56/40/38 59/56/48 
f 59/56/48 58/55/47 54/38/37 
f 56/40/38 40/24/28 34/48/40 
f 34/48/40 59/56/48 56/40/38 
s 2
f 63/57/49 38/58/50 37/59/51 
f 37/59/51 64/60/51 63/57/49 
f 55/61/52 53/62/53 65/63/53 
f 65/63/53 66/64/52 55/61/52 
f 64/60/51 37/59/51 55/61/52 
f 55/61/52 66/64/52 64/60/51 
f 51/65/54 49/66/55 67/67/55 
f 67/67/55 68/68/54 51/65/54 
f 65/63/53 53/62/53 51/65/54 
f 51/65/54 68/68/54 65/63/53 
f 47/69/56 45/70/57 69/71/57 
f 69/71/57 70/72/56 47/69/56 
f 67/67/55 49/66/55 47/69/56 
f 47/69/56 70/72/56 67/67/55 
f 69/71/57 45/70/57 42/73/58 
f 42/73/58 71/74/58 69/71/57 
s 4
f 69/75/59 66/76/60 65/77/59 
f 65/77/59 70/78/59 69/75/59 
s 2
f 72/79/61 71/74/58 42/73/58 
f 42/73/58 41/80/62 72/79/61 
s 4
f 73/81/59 69/75/59 71/82/60 
f 71/82/60 72/83/60 73/81/59 
f 73/81/59 74/84/59 66/76/60 
f 66/76/60 69/75/59 73/81/59 
f 68/85/59 67/86/59 70/78/59 
f 70/78/59 65/77/59 68/85/59 
s 8
f 75/87/63 76/88/63 77/89/63 
s 2
f 78/90/64 79/91/64 80/92/64 
f 80/92/64 81/93/64 78/90/64 
s 1
f 82/94/64 83/95/65 84/96/66 
f 84/96/66 85/97/64 82/94/64 
f 86/98/67 87/99/68 88/100/69 
f 88/100/69 89/101/67 86/98/67 
f 89/101/67 88/100/69 90/102/70 
f 90/102/70 91/103/67 89/101/67 
f 91/103/67 90/102/70 92/104/71 
f 92/104/71 93/105/67 91/103/67 
f 93/105/67 92/104/71 94/106/72 
f 94/106/72 95/107/67 93/105/67 
f 95/107/67 94/106/72 96/108/73 
f 96/108/73 97/109/64 95/107/67 
f 97/109/64 96/108/73 98/110/74 
f 98/110/74 99/111/64 97/109/64 
f 99/111/64 98/110/74 100/112/75 
f 100/112/75 101/113/64 99/111/64 
f 101/113/64 100/112/75 83/95/65 
f 83/95/65 82/94/64 101/113/64 
s 2
f 102/114/64 103/115/64 104/116/64 
f 104/116/64 105/117/64 102/114/64 
f 81/93/64 104/116/64 103/115/64 
f 103/115/64 78/90/64 81/93/64 
f 106/118/64 102/114/64 105/117/64 
f 105/117/64 107/119/64 106/118/64 
s 1
f 83/95/65 81/120/76 80/121/77 
f 80/121/77 84/96/66 83/95/65 
f 87/99/68 79/122/78 78/123/79 
f 78/123/79 88/100/69 87/99/68 
f 88/100/69 78/123/79 103/124/80 
f 103/124/80 90/102/70 88/100/69 
f 90/102/70 103/124/80 102/125/81 
f 102/125/81 92/104/71 90/102/70 
f 92/104/71 102/125/81 106/126/82 
f 106/126/82 94/106/72 92/104/71 
f 94/106/72 106/126/82 107/127/83 
f 107/127/83 96/108/73 94/106/72 
f 96/108/73 107/127/83 105/128/84 
f 105/128/84 98/110/74 96/108/73 
f 98/110/74 105/128/84 104/129/85 
f 104/129/85 100/112/75 98/110/74 
f 100/112/75 104/129/85 81/120/76 
f 81/120/76 83/95/65 100/112/75 
s 2
f 108/130/86 109/131/51 82/132/87 
f 82/132/87 85/133/88 108/130/86 
f 101/134/52 110/135/52 111/136/53 
f 111/136/53 99/137/89 101/134/52 
f 109/131/51 110/135/52 101/134/52 
f 101/134/52 82/132/87 109/131/51 
f 97/138/90 112/139/54 113/140/91 
f 113/140/91 95/141/91 97/138/90 
f 111/136/53 112/139/54 97/138/90 
f 97/138/90 99/137/89 111/136/53 
f 93/142/92 114/143/92 115/144/93 
f 115/144/93 91/145/93 93/142/92 
f 113/140/91 114/143/92 93/142/92 
f 93/142/92 95/141/91 113/140/91 
f 115/144/93 116/146/94 89/147/94 
f 89/147/94 91/145/93 115/144/93 
s 4
f 111/148/26 110/149/25 115/150/26 
f 115/150/26 114/151/26 111/148/26 
s 2
f 117/152/95 86/153/96 89/147/94 
f 89/147/94 116/146/94 117/152/95 
f 85/133/88 38/58/50 63/57/49 
f 63/57/49 108/130/86 85/133/88 
s 4
f 109/154/25 108/155/25 118/156/25 
f 118/156/25 110/149/25 109/154/25 
f 112/157/26 111/148/26 114/151/26 
f 114/151/26 113/158/26 112/157/26 
s 2
f 72/79/61 41/80/62 86/153/96 
f 86/153/96 117/152/95 72/79/61 
s 8
f 119/159/97 120/160/97 121/161/97 
f 77/89/63 122/162/97 121/161/97 
f 121/161/97 123/163/63 77/89/63 
f 123/163/63 124/164/63 125/165/63 
f 77/89/63 123/163/63 125/165/63 
f 125/165/63 75/87/63 77/89/63 
f 122/162/97 126/166/98 127/167/97 
f 121/161/97 122/162/97 127/167/97 
f 127/167/97 119/159/97 121/161/97 
s 1
f 63/168/99 74/169/100 118/170/100 
f 118/170/100 108/171/99 63/168/99 
f 128/172/101 129/173/100 130/174/100 
f 130/174/100 131/175/101 128/172/101 
f 73/176/101 72/177/102 117/178/102 
f 117/178/102 132/179/101 73/176/101 
s 4
f 74/84/59 63/180/59 64/181/59 
f 64/181/59 66/76/60 74/84/59 
f 132/182/26 115/150/26 110/149/25 
f 110/149/25 118/156/25 132/182/26 
f 132/182/26 117/183/26 116/184/26 
f 116/184/26 115/150/26 132/182/26 
s 1
f 118/170/100 74/169/100 130/174/100 
f 130/174/100 129/173/100 118/170/100 
s 4
f 74/84/59 73/81/59 131/185/60 
f 131/185/60 130/186/67 74/84/59 
s 1
f 73/176/101 132/179/101 128/172/101 
f 128/172/101 131/175/101 73/176/101 
s 4
f 132/182/26 118/156/25 129/187/25 
f 129/187/25 128/188/25 132/182/26 
s 2
f 86/153/96 41/80/62 75/189/103 
f 75/189/103 125/190/103 86/153/96 
s 4
f 41/25/25 44/28/30 76/191/104 
f 76/191/104 75/192/25 41/25/25 
f 44/28/30 36/50/42 77/193/105 
f 77/193/105 76/191/104 44/28/30 
s 2
f 36/20/25 35/19/25 122/194/26 
f 122/194/26 77/195/26 36/20/25 
s 4
f 35/47/39 39/23/27 126/196/106 
f 126/196/106 122/197/107 35/47/39 
f 39/23/27 38/22/26 127/198/26 
f 127/198/26 126/196/106 39/23/27 
s 2
f 38/58/50 85/133/88 119/199/108 
f 119/199/108 127/200/108 38/58/50 
s 1
f 85/97/64 84/96/66 120/201/109 
f 120/201/109 119/202/64 85/97/64 
f 84/96/66 80/121/77 121/203/110 
f 121/203/110 120/201/109 84/96/66 
s 2
f 80/92/64 79/91/64 123/204/64 
f 123/204/64 121/205/64 80/92/64 
s 1
f 79/122/78 87/99/68 124/206/111 
f 124/206/111 123/207/112 79/122/78 
f 87/99/68 86/98/67 125/208/67 
f 125/208/67 124/206/111 87/99/68 
# 196 faces

#
# object base_coll
#

v  -0.1894 -0.0000 0.3017
v  -0.1894 0.0000 -0.3017
v  0.1894 0.0000 -0.3017
v  0.1894 -0.0000 0.3017
v  -0.1894 0.7122 0.3017
v  0.1894 0.7122 0.3017
v  0.1894 0.7122 -0.3017
v  -0.1894 0.7122 -0.3017
v  0.7249 -0.0000 0.3017
v  0.7249 0.0000 -0.3017
v  0.6786 0.2464 -0.3017
v  0.6786 0.2464 0.3017
v  -0.7249 0.0000 -0.3017
v  -0.7249 -0.0000 0.3017
v  -0.6786 0.2464 0.3017
v  -0.6786 0.2464 -0.3017
v  0.5045 0.0000 -0.3017
v  0.5045 -0.0000 0.3017
v  0.5045 0.5194 -0.3017
v  0.5045 0.5194 0.3017
v  -0.5045 -0.0000 0.3017
v  -0.5045 0.0000 -0.3017
v  -0.5045 0.5194 0.3017
v  -0.5045 0.5194 -0.3017
# 24 vertices

vn 0.0000 -1.0000 -0.0000
vn 0.0000 1.0000 0.0000
vn 0.0000 -0.0000 1.0000
vn 0.9766 0.2150 0.0000
vn 0.0000 0.0000 -1.0000
vn -0.9766 0.2150 0.0000
vn 0.4631 0.8863 0.0000
vn -0.4631 0.8863 0.0000
vn 0.8010 0.5987 0.0000
vn -0.8010 0.5987 0.0000
# 10 vertex normals

vt 1.0000 0.0000 0.0000
vt 1.0000 1.0000 0.0000
vt 0.0000 1.0000 0.0000
vt 0.0000 0.0000 0.0000
# 4 texture coords

g base_coll
s 2
f 133/209/113 134/210/113 135/211/113 
f 135/211/113 136/212/113 133/209/113 
s 4
f 137/212/114 138/209/114 139/210/114 
f 139/210/114 140/211/114 137/212/114 
s 8
f 133/212/115 136/209/115 138/210/115 
f 138/210/115 137/211/115 133/212/115 
s 16
f 141/212/116 142/209/116 143/210/116 
f 143/210/116 144/211/116 141/212/116 
s 32
f 135/212/117 134/209/117 140/210/117 
f 140/210/117 139/211/117 135/212/117 
s 64
f 145/212/118 146/209/118 147/210/118 
f 147/210/118 148/211/118 145/212/118 
s off
f 136/212/113 135/211/113 149/209/113 
f 149/209/113 150/212/113 136/212/113 
f 135/212/117 139/211/117 151/210/117 
f 151/210/117 149/209/117 135/212/117 
f 139/210/119 138/209/119 152/211/119 
f 152/211/119 151/210/119 139/210/119 
f 138/210/115 136/209/115 150/212/115 
f 150/212/115 152/211/115 138/210/115 
f 134/210/113 133/209/113 153/209/113 
f 153/209/113 154/212/113 134/210/113 
f 133/212/115 137/211/115 155/210/115 
f 155/210/115 153/209/115 133/212/115 
f 137/212/120 140/211/120 156/211/120 
f 156/211/120 155/210/120 137/212/120 
f 140/210/117 134/209/117 154/212/117 
f 154/212/117 156/211/117 140/210/117 
f 150/212/113 149/209/113 142/209/113 
f 142/209/113 141/212/113 150/212/113 
f 149/209/117 151/210/117 143/210/117 
f 143/210/117 142/209/117 149/209/117 
f 151/210/121 152/211/121 144/211/121 
f 144/211/121 143/210/121 151/210/121 
f 152/211/115 150/212/115 141/212/115 
f 141/212/115 144/211/115 152/211/115 
f 154/212/113 153/209/113 146/209/113 
f 146/209/113 145/212/113 154/212/113 
f 153/209/115 155/210/115 147/210/115 
f 147/210/115 146/209/115 153/209/115 
f 155/210/122 156/211/122 148/211/122 
f 148/211/122 147/210/122 155/210/122 
f 156/211/117 154/212/117 145/212/117 
f 145/212/117 148/211/117 156/211/117 
# 44 faces

